<svg width="726" height="109" viewBox="0 0 726 109" fill="none" xmlns="http://www.w3.org/2000/svg">
<g clip-path="url(#clip0_67_7922)">
<g clip-path="url(#clip1_67_7922)">
<g clip-path="url(#clip2_67_7922)">
<path d="M157.001 19.884C160.494 19.884 163.335 17.0435 163.335 13.5506C163.335 10.0578 160.494 7.21729 157.001 7.21729C153.508 7.21729 150.668 10.0578 150.668 13.5506C150.668 17.0435 153.508 19.884 157.001 19.884ZM157.001 10.384C158.748 10.384 160.168 11.8042 160.168 13.5506C160.168 15.297 158.748 16.7173 157.001 16.7173C155.255 16.7173 153.835 15.297 153.835 13.5506C153.835 11.8042 155.255 10.384 157.001 10.384Z" fill="#2091F9"/>
<path d="M155.748 32.256C156.016 32.4473 156.338 32.5502 156.667 32.5502C156.996 32.5502 157.317 32.4473 157.585 32.256C158.066 31.9155 169.379 23.7471 169.333 13.5505C169.333 6.56637 163.651 0.883789 156.667 0.883789C149.683 0.883789 144 6.56637 144 13.5425C143.954 23.7471 155.267 31.9155 155.748 32.256ZM156.667 4.05046C161.906 4.05046 166.167 8.31121 166.167 13.5584C166.2 20.5852 159.219 26.8948 156.667 28.9642C154.116 26.8932 147.134 20.582 147.167 13.5505C147.167 8.31121 151.428 4.05046 156.667 4.05046Z" fill="#2091F9"/>
</g>
<path d="M15.9861 69.8613C15.2287 69.8613 14.5781 69.728 14.0341 69.4613C13.4901 69.1946 13.0634 68.816 12.7541 68.3253C12.4447 67.8346 12.2207 67.2906 12.0821 66.6933C11.9434 66.0853 11.8741 65.408 11.8741 64.6613V64.3893C11.8741 62.384 12.2794 60.8426 13.0901 59.7653C13.9114 58.6773 14.9994 58.1333 16.3541 58.1333C17.2607 58.1333 18.0074 58.368 18.5941 58.8373C19.1807 59.3066 19.5487 59.9946 19.6981 60.9013H18.3701C18.2421 60.3466 18.0127 59.936 17.6821 59.6693C17.3514 59.4026 16.8767 59.2693 16.2581 59.2693C15.3727 59.2693 14.6581 59.664 14.1141 60.4533C13.5701 61.2426 13.2821 62.3733 13.2501 63.8453C13.5274 63.376 13.9221 63.0026 14.4341 62.7253C14.9567 62.4373 15.5434 62.2933 16.1941 62.2933C17.3141 62.2933 18.2154 62.6506 18.8981 63.3653C19.5914 64.08 19.9381 64.9706 19.9381 66.0373C19.9381 67.1893 19.5807 68.1173 18.8661 68.8213C18.1514 69.5146 17.1914 69.8613 15.9861 69.8613ZM15.9861 68.7733C16.7434 68.7733 17.3514 68.528 17.8101 68.0373C18.2794 67.5466 18.5141 66.9013 18.5141 66.1013C18.5141 65.28 18.2847 64.624 17.8261 64.1333C17.3674 63.632 16.7487 63.3813 15.9701 63.3813C15.2021 63.3813 14.5727 63.616 14.0821 64.0853C13.5914 64.5546 13.3461 65.1626 13.3461 65.9093C13.3461 66.816 13.5861 67.52 14.0661 68.0213C14.5567 68.5226 15.1967 68.7733 15.9861 68.7733ZM25.5603 69.8613C24.3763 69.8613 23.4216 69.5306 22.6963 68.8693C21.9816 68.208 21.603 67.3653 21.5603 66.3413H22.8403C22.9043 67.0666 23.1603 67.648 23.6083 68.0853C24.067 68.5226 24.7283 68.7413 25.5923 68.7413C26.467 68.7413 27.1176 68.5493 27.5443 68.1653C27.9816 67.7706 28.2003 67.2266 28.2003 66.5333C28.2003 65.0506 27.395 64.3093 25.7843 64.3093H24.9203V63.1413H25.7203C27.1496 63.1413 27.8643 62.4906 27.8643 61.1893C27.8643 60.624 27.683 60.1653 27.3203 59.8133C26.9683 59.4506 26.4563 59.2693 25.7843 59.2693C25.0803 59.2693 24.499 59.4666 24.0403 59.8613C23.5923 60.256 23.331 60.7786 23.2563 61.4293H22.0403C22.083 60.5013 22.451 59.7226 23.1443 59.0933C23.8376 58.4533 24.7176 58.1333 25.7843 58.1333C26.8296 58.1333 27.6616 58.432 28.2803 59.0293C28.9096 59.616 29.2243 60.3253 29.2243 61.1573C29.2243 62.32 28.6216 63.152 27.4163 63.6533C28.1096 63.8346 28.6483 64.1706 29.0323 64.6613C29.427 65.1413 29.6243 65.7653 29.6243 66.5333C29.6243 67.5573 29.2456 68.368 28.4883 68.9653C27.7416 69.5626 26.7656 69.8613 25.5603 69.8613ZM35.5406 69.8613C34.8899 69.8613 34.2712 69.744 33.6846 69.5093C33.0979 69.264 32.6019 68.8746 32.1966 68.3413C31.7912 67.808 31.5886 67.184 31.5886 66.4693C31.5886 65.7333 31.7859 65.1146 32.1806 64.6133C32.5752 64.112 33.0979 63.744 33.7486 63.5093C33.2046 63.296 32.7779 62.9813 32.4686 62.5653C32.1699 62.1493 32.0206 61.664 32.0206 61.1093C32.0206 60.224 32.3726 59.5093 33.0766 58.9653C33.7912 58.4106 34.6126 58.1333 35.5406 58.1333C36.4686 58.1333 37.2846 58.4106 37.9886 58.9653C38.6926 59.5093 39.0446 60.2133 39.0446 61.0773C39.0446 62.176 38.4579 62.9813 37.2846 63.4933C38.7459 64.0266 39.4766 65.008 39.4766 66.4373C39.4766 67.5146 39.0819 68.3573 38.2926 68.9653C37.5139 69.5626 36.5966 69.8613 35.5406 69.8613ZM35.5406 68.7253C36.2766 68.7253 36.8792 68.5226 37.3486 68.1173C37.8179 67.7013 38.0526 67.1253 38.0526 66.3893C38.0526 65.664 37.8179 65.104 37.3486 64.7093C36.8792 64.3146 36.2872 64.1173 35.5726 64.1173C34.8472 64.1173 34.2392 64.32 33.7486 64.7253C33.2579 65.1306 33.0126 65.696 33.0126 66.4213C33.0126 67.136 33.2579 67.7013 33.7486 68.1173C34.2392 68.5226 34.8366 68.7253 35.5406 68.7253ZM35.5886 63.0133C36.2072 63.0133 36.7032 62.8426 37.0766 62.5013C37.4499 62.16 37.6366 61.6906 37.6366 61.0933C37.6366 60.5493 37.4339 60.1013 37.0286 59.7493C36.6339 59.3973 36.1379 59.2213 35.5406 59.2213C34.9326 59.2213 34.4259 59.3973 34.0206 59.7493C33.6259 60.0906 33.4286 60.5493 33.4286 61.1253C33.4286 61.7013 33.6366 62.16 34.0526 62.5013C34.4686 62.8426 34.9806 63.0133 35.5886 63.0133ZM45.3329 69.8613C44.5756 69.8613 43.9249 69.728 43.3809 69.4613C42.8369 69.1946 42.4103 68.816 42.1009 68.3253C41.7916 67.8346 41.5676 67.2906 41.4289 66.6933C41.2903 66.0853 41.2209 65.408 41.2209 64.6613V64.3893C41.2209 62.384 41.6263 60.8426 42.4369 59.7653C43.2583 58.6773 44.3463 58.1333 45.7009 58.1333C46.6076 58.1333 47.3543 58.368 47.9409 58.8373C48.5276 59.3066 48.8956 59.9946 49.0449 60.9013H47.7169C47.5889 60.3466 47.3596 59.936 47.0289 59.6693C46.6983 59.4026 46.2236 59.2693 45.6049 59.2693C44.7196 59.2693 44.0049 59.664 43.4609 60.4533C42.9169 61.2426 42.6289 62.3733 42.5969 63.8453C42.8743 63.376 43.2689 63.0026 43.7809 62.7253C44.3036 62.4373 44.8903 62.2933 45.5409 62.2933C46.6609 62.2933 47.5623 62.6506 48.2449 63.3653C48.9383 64.08 49.2849 64.9706 49.2849 66.0373C49.2849 67.1893 48.9276 68.1173 48.2129 68.8213C47.4983 69.5146 46.5383 69.8613 45.3329 69.8613ZM45.3329 68.7733C46.0903 68.7733 46.6983 68.528 47.1569 68.0373C47.6263 67.5466 47.8609 66.9013 47.8609 66.1013C47.8609 65.28 47.6316 64.624 47.1729 64.1333C46.7143 63.632 46.0956 63.3813 45.3169 63.3813C44.5489 63.3813 43.9196 63.616 43.4289 64.0853C42.9383 64.5546 42.6929 65.1626 42.6929 65.9093C42.6929 66.816 42.9329 67.52 43.4129 68.0213C43.9036 68.5226 44.5436 68.7733 45.3329 68.7733ZM59.7376 69.8613C58.3189 69.8613 57.2629 69.5306 56.5696 68.8693C55.8869 68.1973 55.4869 67.3173 55.3696 66.2293H56.7136C56.7669 66.6026 56.8416 66.928 56.9376 67.2053C57.0442 67.4826 57.2042 67.744 57.4176 67.9893C57.6309 68.2346 57.9296 68.4213 58.3136 68.5493C58.7082 68.6773 59.1829 68.7413 59.7376 68.7413C60.4842 68.7413 61.1029 68.544 61.5936 68.1493C62.0949 67.744 62.3456 67.2213 62.3456 66.5813C62.3456 65.92 62.1536 65.4346 61.7696 65.1253C61.3856 64.8053 60.6549 64.56 59.5776 64.3893C58.2869 64.1973 57.3269 63.8666 56.6976 63.3973C56.0682 62.9173 55.7536 62.1973 55.7536 61.2373C55.7536 60.352 56.1002 59.616 56.7936 59.0293C57.4869 58.432 58.3669 58.1333 59.4336 58.1333C60.5856 58.1333 61.5029 58.4053 62.1856 58.9493C62.8682 59.4933 63.2629 60.272 63.3696 61.2853H62.1216C61.9829 60.5706 61.7002 60.0533 61.2736 59.7333C60.8469 59.4133 60.2336 59.2533 59.4336 59.2533C58.6762 59.2533 58.0896 59.424 57.6736 59.7653C57.2576 60.1066 57.0496 60.5546 57.0496 61.1093C57.0496 61.7066 57.2309 62.1546 57.5936 62.4533C57.9562 62.752 58.6922 62.9866 59.8016 63.1573C61.1456 63.3706 62.1269 63.7226 62.7456 64.2133C63.3749 64.6933 63.6896 65.4506 63.6896 66.4853C63.6896 67.4453 63.3109 68.2506 62.5536 68.9013C61.8069 69.5413 60.8682 69.8613 59.7376 69.8613ZM66.0768 72.6293V61.3493H67.4048V62.7573C67.6608 62.3306 68.0501 61.968 68.5728 61.6693C69.0955 61.36 69.6501 61.2053 70.2368 61.2053C71.3568 61.2053 72.2688 61.5893 72.9728 62.3573C73.6875 63.1146 74.0448 64.1333 74.0448 65.4133V65.5413C74.0448 66.832 73.6928 67.8773 72.9888 68.6773C72.2955 69.4666 71.3781 69.8613 70.2368 69.8613C69.5861 69.8613 69.0155 69.7226 68.5248 69.4453C68.0341 69.1573 67.6608 68.7893 67.4048 68.3413V72.6293H66.0768ZM70.1088 68.7573C70.9408 68.7573 71.5755 68.4853 72.0128 67.9413C72.4501 67.3973 72.6688 66.6186 72.6688 65.6053V65.4773C72.6688 64.464 72.4235 63.6853 71.9328 63.1413C71.4528 62.5866 70.8395 62.3093 70.0928 62.3093C69.2821 62.3093 68.6208 62.5813 68.1088 63.1253C67.6075 63.6586 67.3568 64.4426 67.3568 65.4773V65.6053C67.3568 66.64 67.6021 67.424 68.0928 67.9573C68.5941 68.4906 69.2661 68.7573 70.1088 68.7573ZM76.2081 69.7173V61.3493H77.5361V62.8533C77.8241 62.3306 78.1761 61.9306 78.5921 61.6533C79.0187 61.376 79.5841 61.2266 80.2881 61.2053V62.4533C79.3707 62.496 78.6827 62.7093 78.2241 63.0933C77.7654 63.4773 77.5361 64.1546 77.5361 65.1253V69.7173H76.2081ZM82.3557 69.7173V61.3493H83.6837V69.7173H82.3557ZM83.6037 59.3493C83.433 59.52 83.2304 59.6053 82.9957 59.6053C82.761 59.6053 82.553 59.52 82.3717 59.3493C82.201 59.1786 82.1157 58.9706 82.1157 58.7253C82.1157 58.48 82.201 58.272 82.3717 58.1013C82.553 57.9306 82.761 57.8453 82.9957 57.8453C83.2304 57.8453 83.433 57.9306 83.6037 58.1013C83.785 58.272 83.8757 58.48 83.8757 58.7253C83.8757 58.9706 83.785 59.1786 83.6037 59.3493ZM86.5018 69.7173V61.3493H87.8298V62.6773C88.0325 62.2506 88.3685 61.8986 88.8378 61.6213C89.3071 61.344 89.8671 61.2053 90.5178 61.2053C91.4351 61.2053 92.1551 61.4773 92.6778 62.0213C93.2005 62.5653 93.4618 63.4186 93.4618 64.5813V69.7173H92.1338V64.4853C92.1338 63.7493 91.9738 63.2106 91.6538 62.8693C91.3338 62.528 90.8378 62.3573 90.1658 62.3573C89.5151 62.3573 88.9605 62.56 88.5018 62.9653C88.0538 63.3706 87.8298 63.9306 87.8298 64.6453V69.7173H86.5018ZM99.5083 72.7733C98.3456 72.7733 97.4496 72.5333 96.8203 72.0533C96.2016 71.584 95.8336 70.9653 95.7163 70.1973H97.0763C97.2683 71.168 98.0736 71.6533 99.4923 71.6533C100.346 71.6533 101.007 71.44 101.476 71.0133C101.946 70.5973 102.18 69.952 102.18 69.0773V67.8613C101.924 68.2986 101.535 68.672 101.012 68.9813C100.49 69.2906 99.935 69.4453 99.3483 69.4453C98.2496 69.4453 97.3376 69.072 96.6123 68.3253C95.8976 67.5786 95.5403 66.6293 95.5403 65.4773V65.3653C95.5403 64.2026 95.9083 63.2213 96.6443 62.4213C97.3803 61.6106 98.3136 61.2053 99.4443 61.2053C100.682 61.2053 101.594 61.7013 102.18 62.6933V61.3493H103.508V69.1573C103.498 70.3413 103.13 71.2373 102.404 71.8453C101.679 72.464 100.714 72.7733 99.5083 72.7733ZM99.4923 68.3413C100.292 68.3413 100.948 68.08 101.46 67.5573C101.972 67.024 102.228 66.2986 102.228 65.3813V65.2693C102.228 64.3413 101.988 63.616 101.508 63.0933C101.039 62.5706 100.394 62.3093 99.5723 62.3093C98.751 62.3093 98.1003 62.5866 97.6203 63.1413C97.151 63.6853 96.9163 64.4053 96.9163 65.3013V65.4293C96.9163 66.3146 97.1616 67.024 97.6523 67.5573C98.1536 68.08 98.767 68.3413 99.4923 68.3413ZM114.422 69.8613C113.003 69.8613 111.947 69.5306 111.254 68.8693C110.571 68.1973 110.171 67.3173 110.054 66.2293H111.398C111.451 66.6026 111.526 66.928 111.622 67.2053C111.729 67.4826 111.889 67.744 112.102 67.9893C112.315 68.2346 112.614 68.4213 112.998 68.5493C113.393 68.6773 113.867 68.7413 114.422 68.7413C115.169 68.7413 115.787 68.544 116.278 68.1493C116.779 67.744 117.03 67.2213 117.03 66.5813C117.03 65.92 116.838 65.4346 116.454 65.1253C116.07 64.8053 115.339 64.56 114.262 64.3893C112.971 64.1973 112.011 63.8666 111.382 63.3973C110.753 62.9173 110.438 62.1973 110.438 61.2373C110.438 60.352 110.785 59.616 111.478 59.0293C112.171 58.432 113.051 58.1333 114.118 58.1333C115.27 58.1333 116.187 58.4053 116.87 58.9493C117.553 59.4933 117.947 60.272 118.054 61.2853H116.806C116.667 60.5706 116.385 60.0533 115.958 59.7333C115.531 59.4133 114.918 59.2533 114.118 59.2533C113.361 59.2533 112.774 59.424 112.358 59.7653C111.942 60.1066 111.734 60.5546 111.734 61.1093C111.734 61.7066 111.915 62.1546 112.278 62.4533C112.641 62.752 113.377 62.9866 114.486 63.1573C115.83 63.3706 116.811 63.7226 117.43 64.2133C118.059 64.6933 118.374 65.4506 118.374 66.4853C118.374 67.4453 117.995 68.2506 117.238 68.9013C116.491 69.5413 115.553 69.8613 114.422 69.8613ZM123.305 69.8293C122.569 69.8293 122.009 69.632 121.625 69.2373C121.241 68.8426 121.049 68.304 121.049 67.6213V62.4693H119.849V61.3493H121.049V59.4453H122.377V61.3493H124.329V62.4693H122.377V67.4933C122.377 68.304 122.724 68.7093 123.417 68.7093C123.801 68.7093 124.143 68.6506 124.441 68.5333V69.6533C124.111 69.7706 123.732 69.8293 123.305 69.8293ZM133.715 69.8613C132.83 69.8613 132.12 69.6 131.587 69.0773C131.064 68.5546 130.803 67.744 130.803 66.6453V61.3493H132.131V66.5813C132.131 67.3173 132.286 67.856 132.595 68.1973C132.915 68.5386 133.406 68.7093 134.067 68.7093C134.696 68.7093 135.235 68.5066 135.683 68.1013C136.142 67.696 136.371 67.136 136.371 66.4213V61.3493H137.699V69.7173H136.371V68.3893C136.168 68.816 135.832 69.168 135.363 69.4453C134.904 69.7226 134.355 69.8613 133.715 69.8613ZM140.483 69.7173V61.3493H141.811V62.6773C142.014 62.2506 142.35 61.8986 142.819 61.6213C143.288 61.344 143.848 61.2053 144.499 61.2053C145.416 61.2053 146.136 61.4773 146.659 62.0213C147.182 62.5653 147.443 63.4186 147.443 64.5813V69.7173H146.115V64.4853C146.115 63.7493 145.955 63.2106 145.635 62.8693C145.315 62.528 144.819 62.3573 144.147 62.3573C143.496 62.3573 142.942 62.56 142.483 62.9653C142.035 63.3706 141.811 63.9306 141.811 64.6453V69.7173H140.483ZM153.298 69.8613C152.178 69.8613 151.266 69.488 150.562 68.7413C149.868 67.9946 149.522 66.9813 149.522 65.7013V65.5733C149.522 64.2933 149.884 63.248 150.61 62.4373C151.335 61.616 152.274 61.2053 153.426 61.2053C154.663 61.2053 155.575 61.7013 156.162 62.6933V57.3493H157.49V69.7173H156.162V68.2773C155.906 68.704 155.511 69.0773 154.978 69.3973C154.444 69.7066 153.884 69.8613 153.298 69.8613ZM153.442 68.7573C154.263 68.7573 154.93 68.4906 155.442 67.9573C155.954 67.4133 156.21 66.624 156.21 65.5893V65.4613C156.21 64.416 155.975 63.632 155.506 63.1093C155.047 62.576 154.396 62.3093 153.554 62.3093C152.722 62.3093 152.071 62.592 151.602 63.1573C151.132 63.712 150.898 64.496 150.898 65.5093V65.6373C150.898 66.6506 151.132 67.424 151.602 67.9573C152.082 68.4906 152.695 68.7573 153.442 68.7573ZM163.701 69.8613C162.506 69.8613 161.53 69.4773 160.773 68.7093C160.026 67.9306 159.653 66.9013 159.653 65.6213V65.4933C159.653 64.2346 160.015 63.2053 160.741 62.4053C161.477 61.6053 162.421 61.2053 163.573 61.2053C164.639 61.2053 165.53 61.552 166.245 62.2453C166.97 62.928 167.333 63.968 167.333 65.3653V65.7973H161.029C161.061 66.7573 161.301 67.4933 161.749 68.0053C162.207 68.5066 162.863 68.7573 163.717 68.7573C165.029 68.7573 165.77 68.272 165.941 67.3013H167.269C167.13 68.1226 166.741 68.7573 166.101 69.2053C165.461 69.6426 164.661 69.8613 163.701 69.8613ZM161.077 64.7253H165.973C165.855 63.1146 165.055 62.3093 163.573 62.3093C162.901 62.3093 162.346 62.528 161.909 62.9653C161.471 63.392 161.194 63.9786 161.077 64.7253ZM169.759 69.7173V62.4693H168.559V61.3493H169.759V59.9893C169.759 59.1253 169.967 58.464 170.383 58.0053C170.799 57.536 171.412 57.3013 172.223 57.3013C172.607 57.3013 172.911 57.344 173.135 57.4293V58.5493C172.9 58.4533 172.612 58.4053 172.271 58.4053C171.481 58.4053 171.087 58.8853 171.087 59.8453V61.3493H173.135V62.4693H171.087V69.7173H169.759ZM174.899 69.7173V61.3493H176.227V69.7173H174.899ZM176.147 59.3493C175.977 59.52 175.774 59.6053 175.539 59.6053C175.305 59.6053 175.097 59.52 174.915 59.3493C174.745 59.1786 174.659 58.9706 174.659 58.7253C174.659 58.48 174.745 58.272 174.915 58.1013C175.097 57.9306 175.305 57.8453 175.539 57.8453C175.774 57.8453 175.977 57.9306 176.147 58.1013C176.329 58.272 176.419 58.48 176.419 58.7253C176.419 58.9706 176.329 59.1786 176.147 59.3493ZM179.046 69.7173V61.3493H180.374V62.6773C180.576 62.2506 180.912 61.8986 181.382 61.6213C181.851 61.344 182.411 61.2053 183.062 61.2053C183.979 61.2053 184.699 61.4773 185.222 62.0213C185.744 62.5653 186.006 63.4186 186.006 64.5813V69.7173H184.678V64.4853C184.678 63.7493 184.518 63.2106 184.198 62.8693C183.878 62.528 183.382 62.3573 182.71 62.3573C182.059 62.3573 181.504 62.56 181.046 62.9653C180.598 63.3706 180.374 63.9306 180.374 64.6453V69.7173H179.046ZM192.132 69.8613C190.937 69.8613 189.961 69.4773 189.204 68.7093C188.457 67.9306 188.084 66.9013 188.084 65.6213V65.4933C188.084 64.2346 188.447 63.2053 189.172 62.4053C189.908 61.6053 190.852 61.2053 192.004 61.2053C193.071 61.2053 193.961 61.552 194.676 62.2453C195.401 62.928 195.764 63.968 195.764 65.3653V65.7973H189.46C189.492 66.7573 189.732 67.4933 190.18 68.0053C190.639 68.5066 191.295 68.7573 192.148 68.7573C193.46 68.7573 194.201 68.272 194.372 67.3013H195.7C195.561 68.1226 195.172 68.7573 194.532 69.2053C193.892 69.6426 193.092 69.8613 192.132 69.8613ZM189.508 64.7253H194.404C194.287 63.1146 193.487 62.3093 192.004 62.3093C191.332 62.3093 190.777 62.528 190.34 62.9653C189.903 63.392 189.625 63.9786 189.508 64.7253ZM201.054 69.8613C199.934 69.8613 199.022 69.488 198.318 68.7413C197.624 67.9946 197.278 66.9813 197.278 65.7013V65.5733C197.278 64.2933 197.64 63.248 198.366 62.4373C199.091 61.616 200.03 61.2053 201.182 61.2053C202.419 61.2053 203.331 61.7013 203.918 62.6933V57.3493H205.246V69.7173H203.918V68.2773C203.662 68.704 203.267 69.0773 202.734 69.3973C202.2 69.7066 201.64 69.8613 201.054 69.8613ZM201.198 68.7573C202.019 68.7573 202.686 68.4906 203.198 67.9573C203.71 67.4133 203.966 66.624 203.966 65.5893V65.4613C203.966 64.416 203.731 63.632 203.262 63.1093C202.803 62.576 202.152 62.3093 201.31 62.3093C200.478 62.3093 199.827 62.592 199.358 63.1573C198.888 63.712 198.654 64.496 198.654 65.5093V65.6373C198.654 66.6506 198.888 67.424 199.358 67.9573C199.838 68.4906 200.451 68.7573 201.198 68.7573ZM211.599 69.7173L215.535 58.2773H217.359L221.231 69.7173H219.855L218.735 66.4213H214.015L212.911 69.7173H211.599ZM216.383 59.4293L214.399 65.3173H218.367L216.383 59.4293ZM223.249 69.7173V61.3493H224.577V62.6773C224.779 62.2506 225.115 61.8986 225.585 61.6213C226.054 61.344 226.614 61.2053 227.265 61.2053C228.182 61.2053 228.902 61.4773 229.425 62.0213C229.947 62.5653 230.209 63.4186 230.209 64.5813V69.7173H228.881V64.4853C228.881 63.7493 228.721 63.2106 228.401 62.8693C228.081 62.528 227.585 62.3573 226.913 62.3573C226.262 62.3573 225.707 62.56 225.249 62.9653C224.801 63.3706 224.577 63.9306 224.577 64.6453V69.7173H223.249ZM236.383 69.8613C235.199 69.8613 234.218 69.4773 233.439 68.7093C232.671 67.9306 232.287 66.9013 232.287 65.6213V65.4933C232.287 64.2346 232.677 63.2053 233.455 62.4053C234.245 61.6053 235.21 61.2053 236.351 61.2053C237.311 61.2053 238.127 61.4453 238.799 61.9253C239.471 62.3946 239.866 63.1306 239.983 64.1333H238.671C238.479 62.9173 237.706 62.3093 236.351 62.3093C235.573 62.3093 234.927 62.6026 234.415 63.1893C233.914 63.7653 233.663 64.5333 233.663 65.4933V65.6213C233.663 66.624 233.909 67.3973 234.399 67.9413C234.901 68.4853 235.567 68.7573 236.399 68.7573C237.029 68.7573 237.567 68.5813 238.015 68.2293C238.474 67.8666 238.735 67.36 238.799 66.7093H240.031C239.946 67.6266 239.562 68.384 238.879 68.9813C238.207 69.568 237.375 69.8613 236.383 69.8613ZM242.136 69.7173V57.3493H243.464V62.6773C243.667 62.2506 244.003 61.8986 244.472 61.6213C244.942 61.344 245.502 61.2053 246.152 61.2053C247.07 61.2053 247.79 61.4773 248.312 62.0213C248.835 62.5653 249.096 63.4186 249.096 64.5813V69.7173H247.768V64.4853C247.768 63.7493 247.608 63.2106 247.288 62.8693C246.968 62.528 246.472 62.3573 245.8 62.3573C245.15 62.3573 244.595 62.56 244.136 62.9653C243.688 63.3706 243.464 63.9306 243.464 64.6453V69.7173H242.136ZM255.287 68.7573C256.119 68.7573 256.78 68.4693 257.271 67.8933C257.772 67.3173 258.023 66.5546 258.023 65.6053V65.4933C258.023 64.5226 257.772 63.7493 257.271 63.1733C256.78 62.5973 256.119 62.3093 255.287 62.3093C254.444 62.3093 253.777 62.5973 253.287 63.1733C252.796 63.7493 252.551 64.5173 252.551 65.4773V65.6053C252.551 66.5653 252.796 67.3333 253.287 67.9093C253.777 68.4746 254.444 68.7573 255.287 68.7573ZM255.271 69.8613C254.087 69.8613 253.105 69.4613 252.327 68.6613C251.559 67.8506 251.175 66.832 251.175 65.6053V65.4773C251.175 64.2293 251.559 63.2053 252.327 62.4053C253.105 61.6053 254.092 61.2053 255.287 61.2053C256.481 61.2053 257.463 61.6053 258.231 62.4053C259.009 63.1946 259.399 64.2133 259.399 65.4613V65.5893C259.399 66.848 259.009 67.8773 258.231 68.6773C257.452 69.4666 256.465 69.8613 255.271 69.8613ZM261.555 69.7173V61.3493H262.883V62.8533C263.171 62.3306 263.523 61.9306 263.939 61.6533C264.366 61.376 264.931 61.2266 265.635 61.2053V62.4533C264.718 62.496 264.03 62.7093 263.571 63.0933C263.112 63.4773 262.883 64.1546 262.883 65.1253V69.7173H261.555ZM269.688 69.8613C268.867 69.8613 268.195 69.6586 267.672 69.2533C267.16 68.8373 266.904 68.2186 266.904 67.3973C266.904 66.5013 267.299 65.8453 268.088 65.4293C268.888 65.0133 269.891 64.8053 271.096 64.8053H272.296V64.1973C272.296 63.5253 272.158 63.0453 271.88 62.7573C271.603 62.4586 271.144 62.3093 270.504 62.3093C269.352 62.3093 268.712 62.8106 268.584 63.8133H267.256C267.342 62.9173 267.694 62.2613 268.312 61.8453C268.931 61.4186 269.683 61.2053 270.568 61.2053C272.606 61.2053 273.624 62.2026 273.624 64.1973V69.7173H272.296V68.6613C271.656 69.4613 270.787 69.8613 269.688 69.8613ZM269.816 68.8053C270.542 68.8053 271.134 68.6293 271.592 68.2773C272.062 67.9146 272.296 67.4186 272.296 66.7893V65.7493H271.144C269.203 65.7493 268.232 66.2986 268.232 67.3973C268.232 68.336 268.76 68.8053 269.816 68.8053ZM279.677 72.7733C278.514 72.7733 277.618 72.5333 276.989 72.0533C276.37 71.584 276.002 70.9653 275.885 70.1973H277.245C277.437 71.168 278.242 71.6533 279.661 71.6533C280.514 71.6533 281.176 71.44 281.645 71.0133C282.114 70.5973 282.349 69.952 282.349 69.0773V67.8613C282.093 68.2986 281.704 68.672 281.181 68.9813C280.658 69.2906 280.104 69.4453 279.517 69.4453C278.418 69.4453 277.506 69.072 276.781 68.3253C276.066 67.5786 275.709 66.6293 275.709 65.4773V65.3653C275.709 64.2026 276.077 63.2213 276.813 62.4213C277.549 61.6106 278.482 61.2053 279.613 61.2053C280.85 61.2053 281.762 61.7013 282.349 62.6933V61.3493H283.677V69.1573C283.666 70.3413 283.298 71.2373 282.573 71.8453C281.848 72.464 280.882 72.7733 279.677 72.7733ZM279.661 68.3413C280.461 68.3413 281.117 68.08 281.629 67.5573C282.141 67.024 282.397 66.2986 282.397 65.3813V65.2693C282.397 64.3413 282.157 63.616 281.677 63.0933C281.208 62.5706 280.562 62.3093 279.741 62.3093C278.92 62.3093 278.269 62.5866 277.789 63.1413C277.32 63.6853 277.085 64.4053 277.085 65.3013V65.4293C277.085 66.3146 277.33 67.024 277.821 67.5573C278.322 68.08 278.936 68.3413 279.661 68.3413ZM289.888 69.8613C288.694 69.8613 287.718 69.4773 286.96 68.7093C286.214 67.9306 285.84 66.9013 285.84 65.6213V65.4933C285.84 64.2346 286.203 63.2053 286.928 62.4053C287.664 61.6053 288.608 61.2053 289.76 61.2053C290.827 61.2053 291.718 61.552 292.432 62.2453C293.158 62.928 293.52 63.968 293.52 65.3653V65.7973H287.216C287.248 66.7573 287.488 67.4933 287.936 68.0053C288.395 68.5066 289.051 68.7573 289.904 68.7573C291.216 68.7573 291.958 68.272 292.128 67.3013H293.456C293.318 68.1226 292.928 68.7573 292.288 69.2053C291.648 69.6426 290.848 69.8613 289.888 69.8613ZM287.264 64.7253H292.16C292.043 63.1146 291.243 62.3093 289.76 62.3093C289.088 62.3093 288.534 62.528 288.096 62.9653C287.659 63.392 287.382 63.9786 287.264 64.7253ZM295.676 71.6853L294.812 71.2373L296.348 67.7333L297.644 68.3413L295.676 71.6853ZM56.6629 92.8613C54.9455 92.8613 53.5909 92.328 52.5989 91.2613C51.6175 90.184 51.1269 88.7866 51.1269 87.0693V86.9413C51.1269 85.256 51.6389 83.864 52.6629 82.7653C53.6975 81.656 55.0309 81.1013 56.6629 81.1013C57.8895 81.1013 58.9295 81.4053 59.7829 82.0133C60.6362 82.6106 61.1482 83.5173 61.3189 84.7333H59.9269C59.6282 83.048 58.5509 82.2053 56.6949 82.2053C55.4042 82.2053 54.3909 82.6373 53.6549 83.5013C52.9295 84.3546 52.5669 85.496 52.5669 86.9253V87.0533C52.5669 88.504 52.9189 89.6506 53.6229 90.4933C54.3269 91.3253 55.3402 91.7413 56.6629 91.7413C57.8469 91.7413 58.7375 91.4053 59.3349 90.7333C59.9322 90.0613 60.2415 89.1813 60.2629 88.0933H56.9189V86.9413H61.6229V87.7893C61.6229 89.4106 61.1695 90.664 60.2629 91.5493C59.3669 92.424 58.1669 92.8613 56.6629 92.8613ZM67.3805 92.8613C66.1858 92.8613 65.2098 92.4773 64.4525 91.7093C63.7058 90.9306 63.3325 89.9013 63.3325 88.6213V88.4933C63.3325 87.2346 63.6952 86.2053 64.4205 85.4053C65.1565 84.6053 66.1005 84.2053 67.2525 84.2053C68.3192 84.2053 69.2098 84.552 69.9245 85.2453C70.6498 85.928 71.0125 86.968 71.0125 88.3653V88.7973H64.7085C64.7405 89.7573 64.9805 90.4933 65.4285 91.0053C65.8872 91.5066 66.5432 91.7573 67.3965 91.7573C68.7085 91.7573 69.4498 91.272 69.6205 90.3013H70.9485C70.8098 91.1226 70.4205 91.7573 69.7805 92.2053C69.1405 92.6426 68.3405 92.8613 67.3805 92.8613ZM64.7565 87.7253H69.6525C69.5352 86.1146 68.7352 85.3093 67.2525 85.3093C66.5805 85.3093 66.0258 85.528 65.5885 85.9653C65.1512 86.392 64.8738 86.9786 64.7565 87.7253ZM76.6382 91.7573C77.4702 91.7573 78.1316 91.4693 78.6222 90.8933C79.1236 90.3173 79.3742 89.5546 79.3742 88.6053V88.4933C79.3742 87.5226 79.1236 86.7493 78.6222 86.1733C78.1316 85.5973 77.4702 85.3093 76.6382 85.3093C75.7956 85.3093 75.1289 85.5973 74.6382 86.1733C74.1476 86.7493 73.9022 87.5173 73.9022 88.4773V88.6053C73.9022 89.5653 74.1476 90.3333 74.6382 90.9093C75.1289 91.4746 75.7956 91.7573 76.6382 91.7573ZM76.6222 92.8613C75.4382 92.8613 74.4569 92.4613 73.6782 91.6613C72.9102 90.8506 72.5262 89.832 72.5262 88.6053V88.4773C72.5262 87.2293 72.9102 86.2053 73.6782 85.4053C74.4569 84.6053 75.4436 84.2053 76.6382 84.2053C77.8329 84.2053 78.8142 84.6053 79.5822 85.4053C80.3609 86.1946 80.7502 87.2133 80.7502 88.4613V88.5893C80.7502 89.848 80.3609 90.8773 79.5822 91.6773C78.8036 92.4666 77.8169 92.8613 76.6222 92.8613ZM82.9065 92.7173V84.3493H84.2345V85.8533C84.5225 85.3306 84.8745 84.9306 85.2905 84.6533C85.7172 84.376 86.2825 84.2266 86.9865 84.2053V85.4533C86.0692 85.496 85.3812 85.7093 84.9225 86.0933C84.4638 86.4773 84.2345 87.1546 84.2345 88.1253V92.7173H82.9065ZM92.1317 95.7733C90.9691 95.7733 90.0731 95.5333 89.4437 95.0533C88.8251 94.584 88.4571 93.9653 88.3397 93.1973H89.6997C89.8917 94.168 90.6971 94.6533 92.1157 94.6533C92.9691 94.6533 93.6304 94.44 94.0997 94.0133C94.5691 93.5973 94.8037 92.952 94.8037 92.0773V90.8613C94.5477 91.2986 94.1584 91.672 93.6357 91.9813C93.1131 92.2906 92.5584 92.4453 91.9717 92.4453C90.8731 92.4453 89.9611 92.072 89.2357 91.3253C88.5211 90.5786 88.1637 89.6293 88.1637 88.4773V88.3653C88.1637 87.2026 88.5317 86.2213 89.2677 85.4213C90.0037 84.6106 90.9371 84.2053 92.0677 84.2053C93.3051 84.2053 94.2171 84.7013 94.8037 85.6933V84.3493H96.1317V92.1573C96.1211 93.3413 95.7531 94.2373 95.0277 94.8453C94.3024 95.464 93.3371 95.7733 92.1317 95.7733ZM92.1157 91.3413C92.9157 91.3413 93.5717 91.08 94.0837 90.5573C94.5957 90.024 94.8517 89.2986 94.8517 88.3813V88.2693C94.8517 87.3413 94.6117 86.616 94.1317 86.0933C93.6624 85.5706 93.0171 85.3093 92.1957 85.3093C91.3744 85.3093 90.7237 85.5866 90.2437 86.1413C89.7744 86.6853 89.5397 87.4053 89.5397 88.3013V88.4293C89.5397 89.3146 89.7851 90.024 90.2757 90.5573C90.7771 91.08 91.3904 91.3413 92.1157 91.3413ZM98.951 92.7173V84.3493H100.279V92.7173H98.951ZM100.199 82.3493C100.028 82.52 99.8257 82.6053 99.591 82.6053C99.3563 82.6053 99.1483 82.52 98.967 82.3493C98.7963 82.1786 98.711 81.9706 98.711 81.7253C98.711 81.48 98.7963 81.272 98.967 81.1013C99.1483 80.9306 99.3563 80.8453 99.591 80.8453C99.8257 80.8453 100.028 80.9306 100.199 81.1013C100.38 81.272 100.471 81.48 100.471 81.7253C100.471 81.9706 100.38 82.1786 100.199 82.3493ZM105.193 92.8613C104.372 92.8613 103.7 92.6586 103.177 92.2533C102.665 91.8373 102.409 91.2186 102.409 90.3973C102.409 89.5013 102.804 88.8453 103.593 88.4293C104.393 88.0133 105.396 87.8053 106.601 87.8053H107.801V87.1973C107.801 86.5253 107.662 86.0453 107.385 85.7573C107.108 85.4586 106.649 85.3093 106.009 85.3093C104.857 85.3093 104.217 85.8106 104.089 86.8133H102.761C102.846 85.9173 103.198 85.2613 103.817 84.8453C104.436 84.4186 105.188 84.2053 106.073 84.2053C108.11 84.2053 109.129 85.2026 109.129 87.1973V92.7173H107.801V91.6613C107.161 92.4613 106.292 92.8613 105.193 92.8613ZM105.321 91.8053C106.046 91.8053 106.638 91.6293 107.097 91.2773C107.566 90.9146 107.801 90.4186 107.801 89.7893V88.7493H106.649C104.708 88.7493 103.737 89.2986 103.737 90.3973C103.737 91.336 104.265 91.8053 105.321 91.8053ZM117.916 92.7173V82.6533L115.356 84.4933V83.1973L118.012 81.2773H119.308V92.7173H117.916ZM121.623 92.7173V92.3973L126.167 87.6133C127.265 86.4506 127.815 85.3466 127.815 84.3013C127.815 83.6613 127.633 83.16 127.271 82.7973C126.919 82.4346 126.417 82.2533 125.767 82.2533C124.369 82.2533 123.564 83.1013 123.351 84.7973H122.055C122.14 83.6666 122.508 82.776 123.159 82.1253C123.82 81.464 124.689 81.1333 125.767 81.1333C126.823 81.1333 127.66 81.4266 128.279 82.0133C128.908 82.5893 129.223 83.368 129.223 84.3493C129.223 85.6186 128.455 87.0053 126.919 88.5093L123.767 91.5813H129.287V92.7173H121.623ZM136.068 92.7173V90.3173H130.34V89.8693L135.572 81.2773H137.428V89.1813H139.012V90.3173H137.428V92.7173H136.068ZM132.1 89.1813H136.068V82.3333L132.1 89.1813ZM141.714 92.7173L145.698 82.3973H139.89V81.2773H147.426V81.4693L143.138 92.7173H141.714ZM152.368 92.8613C151.184 92.8613 150.229 92.5306 149.504 91.8693C148.789 91.208 148.411 90.3653 148.368 89.3413H149.648C149.712 90.0666 149.968 90.648 150.416 91.0853C150.875 91.5226 151.536 91.7413 152.4 91.7413C153.275 91.7413 153.925 91.5493 154.352 91.1653C154.789 90.7706 155.008 90.2266 155.008 89.5333C155.008 88.0506 154.203 87.3093 152.592 87.3093H151.728V86.1413H152.528C153.957 86.1413 154.672 85.4906 154.672 84.1893C154.672 83.624 154.491 83.1653 154.128 82.8133C153.776 82.4506 153.264 82.2693 152.592 82.2693C151.888 82.2693 151.307 82.4666 150.848 82.8613C150.4 83.256 150.139 83.7786 150.064 84.4293H148.848C148.891 83.5013 149.259 82.7226 149.952 82.0933C150.645 81.4533 151.525 81.1333 152.592 81.1333C153.637 81.1333 154.469 81.432 155.088 82.0293C155.717 82.616 156.032 83.3253 156.032 84.1573C156.032 85.32 155.429 86.152 154.224 86.6533C154.917 86.8346 155.456 87.1706 155.84 87.6613C156.235 88.1413 156.432 88.7653 156.432 89.5333C156.432 90.5573 156.053 91.368 155.296 91.9653C154.549 92.5626 153.573 92.8613 152.368 92.8613ZM167.275 92.8613C165.963 92.8613 164.949 92.488 164.235 91.7413C163.52 90.9946 163.163 89.928 163.163 88.5413V81.2773H164.555V88.3813C164.555 89.5653 164.773 90.4186 165.211 90.9413C165.648 91.4533 166.347 91.7093 167.307 91.7093C168.288 91.7093 169.019 91.4533 169.499 90.9413C169.979 90.4293 170.219 89.5066 170.219 88.1733V81.2773H171.611V88.3653C171.611 89.7946 171.248 90.904 170.523 91.6933C169.797 92.472 168.715 92.8613 167.275 92.8613ZM174.325 92.7173V84.3493H175.653V85.6773C175.856 85.2506 176.192 84.8986 176.661 84.6213C177.131 84.344 177.691 84.2053 178.341 84.2053C179.259 84.2053 179.979 84.4773 180.501 85.0213C181.024 85.5653 181.285 86.4186 181.285 87.5813V92.7173H179.957V87.4853C179.957 86.7493 179.797 86.2106 179.477 85.8693C179.157 85.528 178.661 85.3573 177.989 85.3573C177.339 85.3573 176.784 85.56 176.325 85.9653C175.877 86.3706 175.653 86.9306 175.653 87.6453V92.7173H174.325ZM184.02 92.7173V84.3493H185.348V92.7173H184.02ZM185.268 82.3493C185.097 82.52 184.894 82.6053 184.66 82.6053C184.425 82.6053 184.217 82.52 184.036 82.3493C183.865 82.1786 183.78 81.9706 183.78 81.7253C183.78 81.48 183.865 81.272 184.036 81.1013C184.217 80.9306 184.425 80.8453 184.66 80.8453C184.894 80.8453 185.097 80.9306 185.268 81.1013C185.449 81.272 185.54 81.48 185.54 81.7253C185.54 81.9706 185.449 82.1786 185.268 82.3493ZM190.71 92.8293C189.974 92.8293 189.414 92.632 189.03 92.2373C188.646 91.8426 188.454 91.304 188.454 90.6213V85.4693H187.254V84.3493H188.454V82.4453H189.782V84.3493H191.734V85.4693H189.782V90.4933C189.782 91.304 190.129 91.7093 190.822 91.7093C191.206 91.7093 191.547 91.6506 191.846 91.5333V92.6533C191.515 92.7706 191.137 92.8293 190.71 92.8293ZM197.377 92.8613C196.183 92.8613 195.207 92.4773 194.449 91.7093C193.703 90.9306 193.329 89.9013 193.329 88.6213V88.4933C193.329 87.2346 193.692 86.2053 194.417 85.4053C195.153 84.6053 196.097 84.2053 197.249 84.2053C198.316 84.2053 199.207 84.552 199.921 85.2453C200.647 85.928 201.009 86.968 201.009 88.3653V88.7973H194.705C194.737 89.7573 194.977 90.4933 195.425 91.0053C195.884 91.5066 196.54 91.7573 197.393 91.7573C198.705 91.7573 199.447 91.272 199.617 90.3013H200.945C200.807 91.1226 200.417 91.7573 199.777 92.2053C199.137 92.6426 198.337 92.8613 197.377 92.8613ZM194.753 87.7253H199.649C199.532 86.1146 198.732 85.3093 197.249 85.3093C196.577 85.3093 196.023 85.528 195.585 85.9653C195.148 86.392 194.871 86.9786 194.753 87.7253ZM206.299 92.8613C205.179 92.8613 204.267 92.488 203.563 91.7413C202.87 90.9946 202.523 89.9813 202.523 88.7013V88.5733C202.523 87.2933 202.886 86.248 203.611 85.4373C204.336 84.616 205.275 84.2053 206.427 84.2053C207.664 84.2053 208.576 84.7013 209.163 85.6933V80.3493H210.491V92.7173H209.163V91.2773C208.907 91.704 208.512 92.0773 207.979 92.3973C207.446 92.7066 206.886 92.8613 206.299 92.8613ZM206.443 91.7573C207.264 91.7573 207.931 91.4906 208.443 90.9573C208.955 90.4133 209.211 89.624 209.211 88.5893V88.4613C209.211 87.416 208.976 86.632 208.507 86.1093C208.048 85.576 207.398 85.3093 206.555 85.3093C205.723 85.3093 205.072 85.592 204.603 86.1573C204.134 86.712 203.899 87.496 203.899 88.5093V88.6373C203.899 89.6506 204.134 90.424 204.603 90.9573C205.083 91.4906 205.696 91.7573 206.443 91.7573ZM221.405 92.8613C219.986 92.8613 218.93 92.5306 218.237 91.8693C217.554 91.1973 217.154 90.3173 217.037 89.2293H218.381C218.434 89.6026 218.509 89.928 218.605 90.2053C218.711 90.4826 218.871 90.744 219.085 90.9893C219.298 91.2346 219.597 91.4213 219.981 91.5493C220.375 91.6773 220.85 91.7413 221.405 91.7413C222.151 91.7413 222.77 91.544 223.261 91.1493C223.762 90.744 224.013 90.2213 224.013 89.5813C224.013 88.92 223.821 88.4346 223.437 88.1253C223.053 87.8053 222.322 87.56 221.245 87.3893C219.954 87.1973 218.994 86.8666 218.365 86.3973C217.735 85.9173 217.421 85.1973 217.421 84.2373C217.421 83.352 217.767 82.616 218.461 82.0293C219.154 81.432 220.034 81.1333 221.101 81.1333C222.253 81.1333 223.17 81.4053 223.853 81.9493C224.535 82.4933 224.93 83.272 225.037 84.2853H223.789C223.65 83.5706 223.367 83.0533 222.941 82.7333C222.514 82.4133 221.901 82.2533 221.101 82.2533C220.343 82.2533 219.757 82.424 219.341 82.7653C218.925 83.1066 218.717 83.5546 218.717 84.1093C218.717 84.7066 218.898 85.1546 219.261 85.4533C219.623 85.752 220.359 85.9866 221.469 86.1573C222.813 86.3706 223.794 86.7226 224.413 87.2133C225.042 87.6933 225.357 88.4506 225.357 89.4853C225.357 90.4453 224.978 91.2506 224.221 91.9013C223.474 92.5413 222.535 92.8613 221.405 92.8613ZM230.288 92.8293C229.552 92.8293 228.992 92.632 228.608 92.2373C228.224 91.8426 228.032 91.304 228.032 90.6213V85.4693H226.832V84.3493H228.032V82.4453H229.36V84.3493H231.312V85.4693H229.36V90.4933C229.36 91.304 229.707 91.7093 230.4 91.7093C230.784 91.7093 231.125 91.6506 231.424 91.5333V92.6533C231.093 92.7706 230.715 92.8293 230.288 92.8293ZM235.706 92.8613C234.884 92.8613 234.212 92.6586 233.69 92.2533C233.178 91.8373 232.922 91.2186 232.922 90.3973C232.922 89.5013 233.316 88.8453 234.106 88.4293C234.906 88.0133 235.908 87.8053 237.114 87.8053H238.314V87.1973C238.314 86.5253 238.175 86.0453 237.898 85.7573C237.62 85.4586 237.162 85.3093 236.522 85.3093C235.37 85.3093 234.73 85.8106 234.602 86.8133H233.274C233.359 85.9173 233.711 85.2613 234.33 84.8453C234.948 84.4186 235.7 84.2053 236.586 84.2053C238.623 84.2053 239.642 85.2026 239.642 87.1973V92.7173H238.314V91.6613C237.674 92.4613 236.804 92.8613 235.706 92.8613ZM235.834 91.8053C236.559 91.8053 237.151 91.6293 237.61 91.2773C238.079 90.9146 238.314 90.4186 238.314 89.7893V88.7493H237.162C235.22 88.7493 234.25 89.2986 234.25 90.3973C234.25 91.336 234.778 91.8053 235.834 91.8053ZM244.894 92.8293C244.158 92.8293 243.598 92.632 243.214 92.2373C242.83 91.8426 242.638 91.304 242.638 90.6213V85.4693H241.438V84.3493H242.638V82.4453H243.966V84.3493H245.918V85.4693H243.966V90.4933C243.966 91.304 244.313 91.7093 245.006 91.7093C245.39 91.7093 245.732 91.6506 246.03 91.5333V92.6533C245.7 92.7706 245.321 92.8293 244.894 92.8293ZM251.562 92.8613C250.367 92.8613 249.391 92.4773 248.634 91.7093C247.887 90.9306 247.514 89.9013 247.514 88.6213V88.4933C247.514 87.2346 247.876 86.2053 248.602 85.4053C249.338 84.6053 250.282 84.2053 251.434 84.2053C252.5 84.2053 253.391 84.552 254.106 85.2453C254.831 85.928 255.194 86.968 255.194 88.3653V88.7973H248.89C248.922 89.7573 249.162 90.4933 249.61 91.0053C250.068 91.5066 250.724 91.7573 251.578 91.7573C252.89 91.7573 253.631 91.272 253.802 90.3013H255.13C254.991 91.1226 254.602 91.7573 253.962 92.2053C253.322 92.6426 252.522 92.8613 251.562 92.8613ZM248.938 87.7253H253.834C253.716 86.1146 252.916 85.3093 251.434 85.3093C250.762 85.3093 250.207 85.528 249.77 85.9653C249.332 86.392 249.055 86.9786 248.938 87.7253ZM260.002 92.8613C258.999 92.8613 258.21 92.6213 257.634 92.1413C257.068 91.6613 256.764 90.9946 256.722 90.1413H258.018C258.124 91.2186 258.78 91.7573 259.986 91.7573C261.202 91.7573 261.81 91.3146 261.81 90.4293C261.81 90.0133 261.655 89.7093 261.346 89.5173C261.047 89.3146 260.551 89.1493 259.858 89.0213C258.77 88.8186 258.012 88.5413 257.586 88.1893C257.159 87.8266 256.946 87.2826 256.946 86.5573C256.946 85.832 257.234 85.2613 257.81 84.8453C258.396 84.4186 259.052 84.2053 259.778 84.2053C261.591 84.2053 262.599 85.0106 262.802 86.6213H261.522C261.426 86.1626 261.239 85.832 260.962 85.6293C260.684 85.416 260.284 85.3093 259.762 85.3093C259.282 85.3093 258.898 85.4213 258.61 85.6453C258.322 85.8586 258.178 86.1466 258.178 86.5093C258.178 86.8933 258.311 87.176 258.578 87.3573C258.855 87.5386 259.372 87.6986 260.13 87.8373C260.631 87.9333 261.031 88.0293 261.33 88.1253C261.639 88.2106 261.938 88.344 262.226 88.5253C262.524 88.7066 262.738 88.9466 262.866 89.2453C263.004 89.5333 263.074 89.8906 263.074 90.3173C263.074 91.096 262.807 91.7146 262.274 92.1733C261.751 92.632 260.994 92.8613 260.002 92.8613Z" fill="#374754"/>
</g>
<g clip-path="url(#clip3_67_7922)">
<g clip-path="url(#clip4_67_7922)">
<path d="M402.542 12.1758H390.875C388.454 12.1758 386.5 14.1299 386.5 16.5508V39.8841C386.5 42.3049 388.454 44.2591 390.875 44.2591H402.542C404.962 44.2591 406.917 42.3049 406.917 39.8841V16.5508C406.917 14.1299 404.962 12.1758 402.542 12.1758ZM399.625 41.3424H393.792V39.8841H399.625V41.3424ZM404.365 36.9674H389.052V16.5508H404.365V36.9674Z" fill="#2091F9"/>
</g>
<g clip-path="url(#clip5_67_7922)">
<path d="M342.354 84.5853C340.583 82.5053 339.698 80.052 339.698 77.2253C339.698 74.388 340.583 71.9293 342.354 69.8493H343.682C341.954 72.004 341.09 74.4626 341.09 77.2253C341.09 79.9773 341.954 82.4306 343.682 84.5853H342.354ZM348.814 82.3613C348.163 82.3613 347.545 82.244 346.958 82.0093C346.371 81.764 345.875 81.3746 345.47 80.8413C345.065 80.308 344.862 79.684 344.862 78.9693C344.862 78.2333 345.059 77.6146 345.454 77.1133C345.849 76.612 346.371 76.244 347.022 76.0093C346.478 75.796 346.051 75.4813 345.742 75.0653C345.443 74.6493 345.294 74.164 345.294 73.6093C345.294 72.724 345.646 72.0093 346.35 71.4653C347.065 70.9106 347.886 70.6333 348.814 70.6333C349.742 70.6333 350.558 70.9106 351.262 71.4653C351.966 72.0093 352.318 72.7133 352.318 73.5773C352.318 74.676 351.731 75.4813 350.558 75.9933C352.019 76.5266 352.75 77.508 352.75 78.9373C352.75 80.0146 352.355 80.8573 351.566 81.4653C350.787 82.0626 349.87 82.3613 348.814 82.3613ZM348.814 81.2253C349.55 81.2253 350.153 81.0226 350.622 80.6173C351.091 80.2013 351.326 79.6253 351.326 78.8893C351.326 78.164 351.091 77.604 350.622 77.2093C350.153 76.8146 349.561 76.6173 348.846 76.6173C348.121 76.6173 347.513 76.82 347.022 77.2253C346.531 77.6306 346.286 78.196 346.286 78.9213C346.286 79.636 346.531 80.2013 347.022 80.6173C347.513 81.0226 348.11 81.2253 348.814 81.2253ZM348.862 75.5133C349.481 75.5133 349.977 75.3426 350.35 75.0013C350.723 74.66 350.91 74.1906 350.91 73.5933C350.91 73.0493 350.707 72.6013 350.302 72.2493C349.907 71.8973 349.411 71.7213 348.814 71.7213C348.206 71.7213 347.699 71.8973 347.294 72.2493C346.899 72.5906 346.702 73.0493 346.702 73.6253C346.702 74.2013 346.91 74.66 347.326 75.0013C347.742 75.3426 348.254 75.5133 348.862 75.5133ZM359.964 82.2173V79.8173H354.236V79.3693L359.468 70.7773H361.324V78.6813H362.908V79.8173H361.324V82.2173H359.964ZM355.996 78.6813H359.964V71.8333L355.996 78.6813ZM368.227 82.3613C367.043 82.3613 366.089 82.0306 365.363 81.3693C364.649 80.708 364.27 79.8653 364.227 78.8413H365.507C365.571 79.5666 365.827 80.148 366.275 80.5853C366.734 81.0226 367.395 81.2413 368.259 81.2413C369.134 81.2413 369.785 81.0493 370.211 80.6653C370.649 80.2706 370.867 79.7266 370.867 79.0333C370.867 77.5506 370.062 76.8093 368.451 76.8093H367.587V75.6413H368.387C369.817 75.6413 370.531 74.9906 370.531 73.6893C370.531 73.124 370.35 72.6653 369.987 72.3133C369.635 71.9506 369.123 71.7693 368.451 71.7693C367.747 71.7693 367.166 71.9666 366.707 72.3613C366.259 72.756 365.998 73.2786 365.923 73.9293H364.707C364.75 73.0013 365.118 72.2226 365.811 71.5933C366.505 70.9533 367.385 70.6333 368.451 70.6333C369.497 70.6333 370.329 70.932 370.947 71.5293C371.577 72.116 371.891 72.8253 371.891 73.6573C371.891 74.82 371.289 75.652 370.083 76.1533C370.777 76.3346 371.315 76.6706 371.699 77.1613C372.094 77.6413 372.291 78.2653 372.291 79.0333C372.291 80.0573 371.913 80.868 371.155 81.4653C370.409 82.0626 369.433 82.3613 368.227 82.3613ZM373.664 84.5373C375.392 82.3826 376.256 79.924 376.256 77.1613C376.256 74.4093 375.392 71.956 373.664 69.8013H374.992C376.762 71.8813 377.648 74.3346 377.648 77.1613C377.648 79.9986 376.762 82.4573 374.992 84.5373H373.664ZM387.43 82.3613C386.246 82.3613 385.334 82.068 384.694 81.4813C384.065 80.8946 383.708 80.1106 383.622 79.1293H384.95C385.078 79.8226 385.318 80.3506 385.67 80.7133C386.022 81.0653 386.604 81.2413 387.414 81.2413C388.193 81.2413 388.806 80.996 389.254 80.5053C389.702 80.0146 389.926 79.3373 389.926 78.4733C389.926 77.6626 389.708 77.0173 389.27 76.5373C388.833 76.0466 388.252 75.8013 387.526 75.8013C386.374 75.8013 385.473 76.1693 384.822 76.9053H384.31V70.7773H390.742V71.9773H385.462V75.4653C386.028 74.9426 386.806 74.6813 387.798 74.6813C388.844 74.6813 389.697 75.028 390.358 75.7213C391.02 76.404 391.35 77.3213 391.35 78.4733C391.35 79.6466 390.977 80.5906 390.23 81.3053C389.484 82.0093 388.55 82.3613 387.43 82.3613ZM396.765 82.3613C395.581 82.3613 394.669 82.068 394.029 81.4813C393.399 80.8946 393.042 80.1106 392.957 79.1293H394.285C394.413 79.8226 394.653 80.3506 395.005 80.7133C395.357 81.0653 395.938 81.2413 396.749 81.2413C397.527 81.2413 398.141 80.996 398.589 80.5053C399.037 80.0146 399.261 79.3373 399.261 78.4733C399.261 77.6626 399.042 77.0173 398.605 76.5373C398.167 76.0466 397.586 75.8013 396.861 75.8013C395.709 75.8013 394.807 76.1693 394.157 76.9053H393.645V70.7773H400.077V71.9773H394.797V75.4653C395.362 74.9426 396.141 74.6813 397.133 74.6813C398.178 74.6813 399.031 75.028 399.693 75.7213C400.354 76.404 400.685 77.3213 400.685 78.4733C400.685 79.6466 400.311 80.5906 399.565 81.3053C398.818 82.0093 397.885 82.3613 396.765 82.3613ZM406.099 82.3613C404.915 82.3613 404.003 82.068 403.363 81.4813C402.734 80.8946 402.376 80.1106 402.291 79.1293H403.619C403.747 79.8226 403.987 80.3506 404.339 80.7133C404.691 81.0653 405.272 81.2413 406.083 81.2413C406.862 81.2413 407.475 80.996 407.923 80.5053C408.371 80.0146 408.595 79.3373 408.595 78.4733C408.595 77.6626 408.376 77.0173 407.939 76.5373C407.502 76.0466 406.92 75.8013 406.195 75.8013C405.043 75.8013 404.142 76.1693 403.491 76.9053H402.979V70.7773H409.411V71.9773H404.131V75.4653C404.696 74.9426 405.475 74.6813 406.467 74.6813C407.512 74.6813 408.366 75.028 409.027 75.7213C409.688 76.404 410.019 77.3213 410.019 78.4733C410.019 79.6466 409.646 80.5906 408.899 81.3053C408.152 82.0093 407.219 82.3613 406.099 82.3613ZM412.054 77.6093V76.3613H415.958V77.6093H412.054ZM422.526 81.2093C423.518 81.2093 424.27 80.836 424.782 80.0893C425.294 79.332 425.55 78.228 425.55 76.7773V76.1373C425.55 74.7933 425.278 73.7266 424.734 72.9373C424.201 72.148 423.454 71.7533 422.494 71.7533C421.523 71.7533 420.766 72.1426 420.222 72.9213C419.678 73.6893 419.406 74.772 419.406 76.1693V76.8093C419.406 78.228 419.683 79.316 420.238 80.0733C420.793 80.8306 421.555 81.2093 422.526 81.2093ZM422.526 82.3613C421.161 82.3613 420.062 81.8546 419.23 80.8413C418.398 79.828 417.982 78.4893 417.982 76.8253V76.1853C417.982 74.4893 418.382 73.14 419.182 72.1373C419.993 71.1346 421.097 70.6333 422.494 70.6333C423.881 70.6333 424.969 71.14 425.758 72.1533C426.558 73.1666 426.958 74.5 426.958 76.1533V76.7933C426.958 78.4786 426.563 79.828 425.774 80.8413C424.995 81.8546 423.913 82.3613 422.526 82.3613ZM431.1 82.2173V72.1533L428.54 73.9933V72.6973L431.196 70.7773H432.492V82.2173H431.1ZM439.143 82.3613C437.959 82.3613 437.004 82.0306 436.279 81.3693C435.564 80.708 435.186 79.8653 435.143 78.8413H436.423C436.487 79.5666 436.743 80.148 437.191 80.5853C437.65 81.0226 438.311 81.2413 439.175 81.2413C440.05 81.2413 440.7 81.0493 441.127 80.6653C441.564 80.2706 441.783 79.7266 441.783 79.0333C441.783 77.5506 440.978 76.8093 439.367 76.8093H438.503V75.6413H439.303C440.732 75.6413 441.447 74.9906 441.447 73.6893C441.447 73.124 441.266 72.6653 440.903 72.3133C440.551 71.9506 440.039 71.7693 439.367 71.7693C438.663 71.7693 438.082 71.9666 437.623 72.3613C437.175 72.756 436.914 73.2786 436.839 73.9293H435.623C435.666 73.0013 436.034 72.2226 436.727 71.5933C437.42 70.9533 438.3 70.6333 439.367 70.6333C440.412 70.6333 441.244 70.932 441.863 71.5293C442.492 72.116 442.807 72.8253 442.807 73.6573C442.807 74.82 442.204 75.652 440.999 76.1533C441.692 76.3346 442.231 76.6706 442.615 77.1613C443.01 77.6413 443.207 78.2653 443.207 79.0333C443.207 80.0573 442.828 80.868 442.071 81.4653C441.324 82.0626 440.348 82.3613 439.143 82.3613ZM449.763 81.2093C450.755 81.2093 451.507 80.836 452.019 80.0893C452.531 79.332 452.787 78.228 452.787 76.7773V76.1373C452.787 74.7933 452.515 73.7266 451.971 72.9373C451.438 72.148 450.691 71.7533 449.731 71.7533C448.761 71.7533 448.003 72.1426 447.459 72.9213C446.915 73.6893 446.643 74.772 446.643 76.1693V76.8093C446.643 78.228 446.921 79.316 447.475 80.0733C448.03 80.8306 448.793 81.2093 449.763 81.2093ZM449.763 82.3613C448.398 82.3613 447.299 81.8546 446.467 80.8413C445.635 79.828 445.219 78.4893 445.219 76.8253V76.1853C445.219 74.4893 445.619 73.14 446.419 72.1373C447.23 71.1346 448.334 70.6333 449.731 70.6333C451.118 70.6333 452.206 71.14 452.995 72.1533C453.795 73.1666 454.195 74.5 454.195 76.1533V76.7933C454.195 78.4786 453.801 79.828 453.011 80.8413C452.233 81.8546 451.15 82.3613 449.763 82.3613Z" fill="#374754"/>
</g>
</g>
<g clip-path="url(#clip6_67_7922)">
<g clip-path="url(#clip7_67_7922)">
<path d="M614.812 17.9048H590.438C589.919 17.9048 589.5 18.3237 589.5 18.8423V37.5923C589.5 38.1108 589.919 38.5298 590.438 38.5298H614.812C615.331 38.5298 615.75 38.1108 615.75 37.5923V18.8423C615.75 18.3237 615.331 17.9048 614.812 17.9048ZM613.641 21.1509V36.4204H591.609V21.1509L590.801 20.521L591.952 19.0415L593.206 20.0171H612.047L613.301 19.0415L614.452 20.521L613.641 21.1509ZM612.047 20.0142L602.625 27.3384L593.203 20.0142L591.949 19.0386L590.798 20.5181L591.606 21.1479L601.614 28.9292C601.902 29.1528 602.256 29.2742 602.621 29.2742C602.985 29.2742 603.339 29.1528 603.627 28.9292L613.641 21.1509L614.449 20.521L613.298 19.0415L612.047 20.0142Z" fill="#2091F9"/>
</g>
<g clip-path="url(#clip8_67_7922)">
<path d="M493.732 76.2173L491.156 67.8493H492.596L494.548 74.5853L496.58 67.8493H497.732L499.636 74.5853L501.604 67.8493H502.964L500.356 76.2173H498.884L497.14 69.9453L495.188 76.2173H493.732ZM504.887 76.2173V67.8493H506.215V76.2173H504.887ZM506.135 65.8493C505.964 66.02 505.762 66.1053 505.527 66.1053C505.292 66.1053 505.084 66.02 504.903 65.8493C504.732 65.6786 504.647 65.4706 504.647 65.2253C504.647 64.98 504.732 64.772 504.903 64.6013C505.084 64.4306 505.292 64.3453 505.527 64.3453C505.762 64.3453 505.964 64.4306 506.135 64.6013C506.316 64.772 506.407 64.98 506.407 65.2253C506.407 65.4706 506.316 65.6786 506.135 65.8493ZM509.065 76.2173V63.8493H510.409V76.2173H509.065ZM513.259 76.2173V63.8493H514.603V76.2173H513.259ZM517.453 76.2173V67.8493H518.781V76.2173H517.453ZM518.701 65.8493C518.53 66.02 518.327 66.1053 518.093 66.1053C517.858 66.1053 517.65 66.02 517.469 65.8493C517.298 65.6786 517.213 65.4706 517.213 65.2253C517.213 64.98 517.298 64.772 517.469 64.6013C517.65 64.4306 517.858 64.3453 518.093 64.3453C518.327 64.3453 518.53 64.4306 518.701 64.6013C518.882 64.772 518.973 64.98 518.973 65.2253C518.973 65.4706 518.882 65.6786 518.701 65.8493ZM525.023 76.3613C523.828 76.3613 522.852 75.9773 522.095 75.2093C521.348 74.4306 520.975 73.4013 520.975 72.1213V71.9933C520.975 70.7346 521.337 69.7053 522.063 68.9053C522.799 68.1053 523.743 67.7053 524.895 67.7053C525.961 67.7053 526.852 68.052 527.567 68.7453C528.292 69.428 528.655 70.468 528.655 71.8653V72.2973H522.351C522.383 73.2573 522.623 73.9933 523.071 74.5053C523.529 75.0066 524.185 75.2573 525.039 75.2573C526.351 75.2573 527.092 74.772 527.263 73.8013H528.591C528.452 74.6226 528.063 75.2573 527.423 75.7053C526.783 76.1426 525.983 76.3613 525.023 76.3613ZM522.399 71.2253H527.295C527.177 69.6146 526.377 68.8093 524.895 68.8093C524.223 68.8093 523.668 69.028 523.231 69.4653C522.793 69.892 522.516 70.4786 522.399 71.2253ZM532.346 76.0093C532.144 76.2013 531.904 76.2973 531.626 76.2973C531.349 76.2973 531.109 76.2013 530.906 76.0093C530.704 75.8066 530.602 75.5613 530.602 75.2733C530.602 74.9853 530.704 74.7453 530.906 74.5533C531.109 74.3506 531.349 74.2493 531.626 74.2493C531.904 74.2493 532.144 74.3506 532.346 74.5533C532.549 74.7453 532.65 74.9853 532.65 75.2733C532.65 75.5613 532.549 75.8066 532.346 76.0093ZM534.13 79.2733V78.1533C534.578 78.1106 534.893 77.9826 535.074 77.7693C535.266 77.556 535.362 77.252 535.362 76.8573V67.8493H536.69V76.7453C536.69 77.5666 536.487 78.1853 536.082 78.6013C535.687 79.0173 535.037 79.2413 534.13 79.2733ZM536.61 65.8493C536.439 66.02 536.237 66.1053 536.002 66.1053C535.767 66.1053 535.559 66.02 535.378 65.8493C535.207 65.6786 535.122 65.4706 535.122 65.2253C535.122 64.98 535.207 64.772 535.378 64.6013C535.559 64.4306 535.767 64.3453 536.002 64.3453C536.237 64.3453 536.439 64.4306 536.61 64.6013C536.791 64.772 536.882 64.98 536.882 65.2253C536.882 65.4706 536.791 65.6786 536.61 65.8493ZM542.932 76.3613C541.737 76.3613 540.761 75.9773 540.004 75.2093C539.257 74.4306 538.884 73.4013 538.884 72.1213V71.9933C538.884 70.7346 539.247 69.7053 539.972 68.9053C540.708 68.1053 541.652 67.7053 542.804 67.7053C543.871 67.7053 544.761 68.052 545.476 68.7453C546.201 69.428 546.564 70.468 546.564 71.8653V72.2973H540.26C540.292 73.2573 540.532 73.9933 540.98 74.5053C541.439 75.0066 542.095 75.2573 542.948 75.2573C544.26 75.2573 545.001 74.772 545.172 73.8013H546.5C546.361 74.6226 545.972 75.2573 545.332 75.7053C544.692 76.1426 543.892 76.3613 542.932 76.3613ZM540.308 71.2253H545.204C545.087 69.6146 544.287 68.8093 542.804 68.8093C542.132 68.8093 541.577 69.028 541.14 69.4653C540.703 69.892 540.425 70.4786 540.308 71.2253ZM548.702 76.2173V67.8493H550.03V69.1773C550.232 68.7506 550.568 68.3986 551.038 68.1213C551.507 67.844 552.067 67.7053 552.718 67.7053C553.635 67.7053 554.355 67.9773 554.878 68.5213C555.4 69.0653 555.662 69.9186 555.662 71.0813V76.2173H554.334V70.9853C554.334 70.2493 554.174 69.7106 553.854 69.3693C553.534 69.028 553.038 68.8573 552.366 68.8573C551.715 68.8573 551.16 69.06 550.702 69.4653C550.254 69.8706 550.03 70.4306 550.03 71.1453V76.2173H548.702ZM558.364 76.2173V67.8493H559.692V69.1773C559.895 68.7506 560.231 68.3986 560.7 68.1213C561.17 67.844 561.73 67.7053 562.38 67.7053C563.298 67.7053 564.018 67.9773 564.54 68.5213C565.063 69.0653 565.324 69.9186 565.324 71.0813V76.2173H563.996V70.9853C563.996 70.2493 563.836 69.7106 563.516 69.3693C563.196 69.028 562.7 68.8573 562.028 68.8573C561.378 68.8573 560.823 69.06 560.364 69.4653C559.916 69.8706 559.692 70.4306 559.692 71.1453V76.2173H558.364ZM568.059 76.2173V67.8493H569.387V76.2173H568.059ZM569.307 65.8493C569.136 66.02 568.933 66.1053 568.699 66.1053C568.464 66.1053 568.256 66.02 568.075 65.8493C567.904 65.6786 567.819 65.4706 567.819 65.2253C567.819 64.98 567.904 64.772 568.075 64.6013C568.256 64.4306 568.464 64.3453 568.699 64.3453C568.933 64.3453 569.136 64.4306 569.307 64.6013C569.488 64.772 569.579 64.98 569.579 65.2253C569.579 65.4706 569.488 65.6786 569.307 65.8493ZM572.205 76.2173V67.8493H573.533V69.1773C573.736 68.7506 574.072 68.3986 574.541 68.1213C575.01 67.844 575.57 67.7053 576.221 67.7053C577.138 67.7053 577.858 67.9773 578.381 68.5213C578.904 69.0653 579.165 69.9186 579.165 71.0813V76.2173H577.837V70.9853C577.837 70.2493 577.677 69.7106 577.357 69.3693C577.037 69.028 576.541 68.8573 575.869 68.8573C575.218 68.8573 574.664 69.06 574.205 69.4653C573.757 69.8706 573.533 70.4306 573.533 71.1453V76.2173H572.205ZM585.211 79.2733C584.049 79.2733 583.153 79.0333 582.523 78.5533C581.905 78.084 581.537 77.4653 581.419 76.6973H582.779C582.971 77.668 583.777 78.1533 585.195 78.1533C586.049 78.1533 586.71 77.94 587.179 77.5133C587.649 77.0973 587.883 76.452 587.883 75.5773V74.3613C587.627 74.7986 587.238 75.172 586.715 75.4813C586.193 75.7906 585.638 75.9453 585.051 75.9453C583.953 75.9453 583.041 75.572 582.315 74.8253C581.601 74.0786 581.243 73.1293 581.243 71.9773V71.8653C581.243 70.7026 581.611 69.7213 582.347 68.9213C583.083 68.1106 584.017 67.7053 585.147 67.7053C586.385 67.7053 587.297 68.2013 587.883 69.1933V67.8493H589.211V75.6573C589.201 76.8413 588.833 77.7373 588.107 78.3453C587.382 78.964 586.417 79.2733 585.211 79.2733ZM585.195 74.8413C585.995 74.8413 586.651 74.58 587.163 74.0573C587.675 73.524 587.931 72.7986 587.931 71.8813V71.7693C587.931 70.8413 587.691 70.116 587.211 69.5933C586.742 69.0706 586.097 68.8093 585.275 68.8093C584.454 68.8093 583.803 69.0866 583.323 69.6413C582.854 70.1853 582.619 70.9053 582.619 71.8013V71.9293C582.619 72.8146 582.865 73.524 583.355 74.0573C583.857 74.58 584.47 74.8413 585.195 74.8413ZM594.591 76.3613C593.588 76.3613 592.799 76.1213 592.223 75.6413C591.657 75.1613 591.353 74.4946 591.311 73.6413H592.607C592.713 74.7186 593.369 75.2573 594.575 75.2573C595.791 75.2573 596.399 74.8146 596.399 73.9293C596.399 73.5133 596.244 73.2093 595.935 73.0173C595.636 72.8146 595.14 72.6493 594.447 72.5213C593.359 72.3186 592.601 72.0413 592.175 71.6893C591.748 71.3266 591.535 70.7826 591.535 70.0573C591.535 69.332 591.823 68.7613 592.399 68.3453C592.985 67.9186 593.641 67.7053 594.367 67.7053C596.18 67.7053 597.188 68.5106 597.391 70.1213H596.111C596.015 69.6626 595.828 69.332 595.551 69.1293C595.273 68.916 594.873 68.8093 594.351 68.8093C593.871 68.8093 593.487 68.9213 593.199 69.1453C592.911 69.3586 592.767 69.6466 592.767 70.0093C592.767 70.3933 592.9 70.676 593.167 70.8573C593.444 71.0386 593.961 71.1986 594.719 71.3373C595.22 71.4333 595.62 71.5293 595.919 71.6253C596.228 71.7106 596.527 71.844 596.815 72.0253C597.113 72.2066 597.327 72.4466 597.455 72.7453C597.593 73.0333 597.663 73.3906 597.663 73.8173C597.663 74.596 597.396 75.2146 596.863 75.6733C596.34 76.132 595.583 76.3613 594.591 76.3613ZM605.786 78.5693C604.752 78.5693 603.808 78.388 602.954 78.0253C602.101 77.6733 601.402 77.1933 600.858 76.5853C600.314 75.9773 599.893 75.2893 599.594 74.5213C599.306 73.7426 599.162 72.9213 599.162 72.0573C599.162 70.1266 599.829 68.5053 601.162 67.1933C602.506 65.8706 604.117 65.2093 605.994 65.2093C607.882 65.2093 609.413 65.7693 610.586 66.8893C611.77 67.9986 612.362 69.3906 612.362 71.0653C612.362 71.78 612.266 72.4146 612.074 72.9693C611.882 73.5133 611.632 73.94 611.322 74.2493C611.024 74.548 610.704 74.772 610.362 74.9213C610.032 75.0706 609.696 75.1453 609.354 75.1453C608.746 75.1453 608.304 75.028 608.026 74.7933C607.76 74.5586 607.589 74.2173 607.514 73.7693C607.269 74.196 606.928 74.5533 606.49 74.8413C606.064 75.1186 605.61 75.2573 605.13 75.2573C604.352 75.2573 603.728 75.0066 603.258 74.5053C602.789 74.004 602.554 73.3266 602.554 72.4733C602.554 71.4066 602.858 70.5213 603.466 69.8173C604.074 69.1133 604.821 68.7613 605.706 68.7613C606.698 68.7613 607.344 69.124 607.642 69.8493L607.754 68.8893H609.082L608.602 72.9213C608.496 73.764 608.752 74.1853 609.37 74.1853C609.872 74.1853 610.304 73.924 610.666 73.4013C611.029 72.8786 611.21 72.1106 611.21 71.0973C611.21 69.6466 610.746 68.4786 609.818 67.5933C608.89 66.708 607.616 66.2653 605.994 66.2653C604.373 66.2653 603.034 66.804 601.978 67.8813C600.922 68.9586 600.394 70.34 600.394 72.0253C600.394 72.7613 600.506 73.46 600.73 74.1213C600.965 74.772 601.301 75.3533 601.738 75.8653C602.176 76.3666 602.741 76.7666 603.434 77.0653C604.138 77.364 604.922 77.5133 605.786 77.5133C606.629 77.5133 607.338 77.4066 607.914 77.1933C608.49 76.9906 609.04 76.6653 609.562 76.2173H610.794C610.378 76.9213 609.722 77.4866 608.826 77.9133C607.93 78.3506 606.917 78.5693 605.786 78.5693ZM605.418 74.2333C605.952 74.2333 606.426 73.9986 606.842 73.5293C607.258 73.06 607.466 72.4253 607.466 71.6253C607.466 71.028 607.322 70.58 607.034 70.2813C606.746 69.972 606.336 69.8173 605.802 69.8173C605.28 69.8173 604.832 70.0573 604.458 70.5373C604.096 71.0066 603.914 71.6466 603.914 72.4573C603.914 73.0013 604.053 73.4333 604.33 73.7533C604.618 74.0733 604.981 74.2333 605.418 74.2333ZM617.951 76.3613C616.756 76.3613 615.78 75.9773 615.023 75.2093C614.276 74.4306 613.903 73.4013 613.903 72.1213V71.9933C613.903 70.7346 614.265 69.7053 614.991 68.9053C615.727 68.1053 616.671 67.7053 617.823 67.7053C618.889 67.7053 619.78 68.052 620.495 68.7453C621.22 69.428 621.583 70.468 621.583 71.8653V72.2973H615.279C615.311 73.2573 615.551 73.9933 615.999 74.5053C616.457 75.0066 617.113 75.2573 617.967 75.2573C619.279 75.2573 620.02 74.772 620.191 73.8013H621.519C621.38 74.6226 620.991 75.2573 620.351 75.7053C619.711 76.1426 618.911 76.3613 617.951 76.3613ZM615.327 71.2253H620.223C620.105 69.6146 619.305 68.8093 617.823 68.8093C617.151 68.8093 616.596 69.028 616.159 69.4653C615.721 69.892 615.444 70.4786 615.327 71.2253ZM622.59 76.2173L625.582 71.9133L622.782 67.8493H624.334L626.382 70.8893L628.414 67.8493H629.854L627.086 71.8173L630.142 76.2173H628.574L626.318 72.8413L624.014 76.2173H622.59ZM634.135 76.3613C633.314 76.3613 632.642 76.1586 632.119 75.7533C631.607 75.3373 631.351 74.7186 631.351 73.8973C631.351 73.0013 631.746 72.3453 632.535 71.9293C633.335 71.5133 634.338 71.3053 635.543 71.3053H636.743V70.6973C636.743 70.0253 636.605 69.5453 636.327 69.2573C636.05 68.9586 635.591 68.8093 634.951 68.8093C633.799 68.8093 633.159 69.3106 633.031 70.3133H631.703C631.789 69.4173 632.141 68.7613 632.759 68.3453C633.378 67.9186 634.13 67.7053 635.015 67.7053C637.053 67.7053 638.071 68.7026 638.071 70.6973V76.2173H636.743V75.1613C636.103 75.9613 635.234 76.3613 634.135 76.3613ZM634.263 75.3053C634.989 75.3053 635.581 75.1293 636.039 74.7773C636.509 74.4146 636.743 73.9186 636.743 73.2893V72.2493H635.591C633.65 72.2493 632.679 72.7986 632.679 73.8973C632.679 74.836 633.207 75.3053 634.263 75.3053ZM640.78 76.2173V67.8493H642.108V69.1293C642.311 68.7133 642.631 68.372 643.068 68.1053C643.516 67.8386 644.028 67.7053 644.604 67.7053C645.831 67.7053 646.647 68.228 647.052 69.2733C647.319 68.7613 647.719 68.372 648.252 68.1053C648.796 67.8386 649.351 67.7053 649.916 67.7053C650.737 67.7053 651.409 67.9773 651.932 68.5213C652.465 69.0546 652.732 69.892 652.732 71.0333V76.2173H651.404V70.9373C651.404 69.5506 650.812 68.8573 649.628 68.8573C649.031 68.8573 648.513 69.0546 648.076 69.4493C647.639 69.844 647.42 70.3933 647.42 71.0973V76.2173H646.092V70.9373C646.092 69.5506 645.5 68.8573 644.316 68.8573C643.719 68.8573 643.201 69.0546 642.764 69.4493C642.327 69.844 642.108 70.3933 642.108 71.0973V76.2173H640.78ZM655.442 79.1293V67.8493H656.77V69.2573C657.026 68.8306 657.416 68.468 657.938 68.1693C658.461 67.86 659.016 67.7053 659.602 67.7053C660.722 67.7053 661.634 68.0893 662.338 68.8573C663.053 69.6146 663.41 70.6333 663.41 71.9133V72.0413C663.41 73.332 663.058 74.3773 662.354 75.1773C661.661 75.9666 660.744 76.3613 659.602 76.3613C658.952 76.3613 658.381 76.2226 657.89 75.9453C657.4 75.6573 657.026 75.2893 656.77 74.8413V79.1293H655.442ZM659.474 75.2573C660.306 75.2573 660.941 74.9853 661.378 74.4413C661.816 73.8973 662.034 73.1186 662.034 72.1053V71.9773C662.034 70.964 661.789 70.1853 661.298 69.6413C660.818 69.0866 660.205 68.8093 659.458 68.8093C658.648 68.8093 657.986 69.0813 657.474 69.6253C656.973 70.1586 656.722 70.9426 656.722 71.9773V72.1053C656.722 73.14 656.968 73.924 657.458 74.4573C657.96 74.9906 658.632 75.2573 659.474 75.2573ZM665.606 76.2173V63.8493H666.95V76.2173H665.606ZM673.191 76.3613C671.997 76.3613 671.021 75.9773 670.263 75.2093C669.517 74.4306 669.143 73.4013 669.143 72.1213V71.9933C669.143 70.7346 669.506 69.7053 670.231 68.9053C670.967 68.1053 671.911 67.7053 673.063 67.7053C674.13 67.7053 675.021 68.052 675.735 68.7453C676.461 69.428 676.823 70.468 676.823 71.8653V72.2973H670.519C670.551 73.2573 670.791 73.9933 671.239 74.5053C671.698 75.0066 672.354 75.2573 673.207 75.2573C674.519 75.2573 675.261 74.772 675.431 73.8013H676.759C676.621 74.6226 676.231 75.2573 675.591 75.7053C674.951 76.1426 674.151 76.3613 673.191 76.3613ZM670.567 71.2253H675.463C675.346 69.6146 674.546 68.8093 673.063 68.8093C672.391 68.8093 671.837 69.028 671.399 69.4653C670.962 69.892 670.685 70.4786 670.567 71.2253ZM680.515 76.0093C680.312 76.2013 680.072 76.2973 679.795 76.2973C679.518 76.2973 679.278 76.2013 679.075 76.0093C678.872 75.8066 678.771 75.5613 678.771 75.2733C678.771 74.9853 678.872 74.7453 679.075 74.5533C679.278 74.3506 679.518 74.2493 679.795 74.2493C680.072 74.2493 680.312 74.3506 680.515 74.5533C680.718 74.7453 680.819 74.9853 680.819 75.2733C680.819 75.5613 680.718 75.8066 680.515 76.0093ZM686.564 76.3613C685.38 76.3613 684.399 75.9773 683.62 75.2093C682.852 74.4306 682.468 73.4013 682.468 72.1213V71.9933C682.468 70.7346 682.858 69.7053 683.636 68.9053C684.426 68.1053 685.391 67.7053 686.532 67.7053C687.492 67.7053 688.308 67.9453 688.98 68.4253C689.652 68.8946 690.047 69.6306 690.164 70.6333H688.852C688.66 69.4173 687.887 68.8093 686.532 68.8093C685.754 68.8093 685.108 69.1026 684.596 69.6893C684.095 70.2653 683.844 71.0333 683.844 71.9933V72.1213C683.844 73.124 684.09 73.8973 684.58 74.4413C685.082 74.9853 685.748 75.2573 686.58 75.2573C687.21 75.2573 687.748 75.0813 688.196 74.7293C688.655 74.3666 688.916 73.86 688.98 73.2093H690.212C690.127 74.1266 689.743 74.884 689.06 75.4813C688.388 76.068 687.556 76.3613 686.564 76.3613ZM695.805 75.2573C696.637 75.2573 697.299 74.9693 697.789 74.3933C698.291 73.8173 698.541 73.0546 698.541 72.1053V71.9933C698.541 71.0226 698.291 70.2493 697.789 69.6733C697.299 69.0973 696.637 68.8093 695.805 68.8093C694.963 68.8093 694.296 69.0973 693.805 69.6733C693.315 70.2493 693.069 71.0173 693.069 71.9773V72.1053C693.069 73.0653 693.315 73.8333 693.805 74.4093C694.296 74.9746 694.963 75.2573 695.805 75.2573ZM695.789 76.3613C694.605 76.3613 693.624 75.9613 692.845 75.1613C692.077 74.3506 691.693 73.332 691.693 72.1053V71.9773C691.693 70.7293 692.077 69.7053 692.845 68.9053C693.624 68.1053 694.611 67.7053 695.805 67.7053C697 67.7053 697.981 68.1053 698.749 68.9053C699.528 69.6946 699.917 70.7133 699.917 71.9613V72.0893C699.917 73.348 699.528 74.3773 698.749 75.1773C697.971 75.9666 696.984 76.3613 695.789 76.3613ZM702.074 76.2173V67.8493H703.402V69.1293C703.604 68.7133 703.924 68.372 704.362 68.1053C704.81 67.8386 705.322 67.7053 705.898 67.7053C707.124 67.7053 707.94 68.228 708.346 69.2733C708.612 68.7613 709.012 68.372 709.546 68.1053C710.09 67.8386 710.644 67.7053 711.21 67.7053C712.031 67.7053 712.703 67.9773 713.226 68.5213C713.759 69.0546 714.026 69.892 714.026 71.0333V76.2173H712.698V70.9373C712.698 69.5506 712.106 68.8573 710.922 68.8573C710.324 68.8573 709.807 69.0546 709.37 69.4493C708.932 69.844 708.714 70.3933 708.714 71.0973V76.2173H707.386V70.9373C707.386 69.5506 706.794 68.8573 705.61 68.8573C705.012 68.8573 704.495 69.0546 704.058 69.4493C703.62 69.844 703.402 70.3933 703.402 71.0973V76.2173H702.074Z" fill="#374754"/>
</g>
</g>
</g>
<defs>
<clipPath id="clip0_67_7922">
<rect width="725" height="108" fill="white" transform="translate(0.5 0.717285)"/>
</clipPath>
<clipPath id="clip1_67_7922">
<rect width="313" height="108" fill="white" transform="translate(0.5 0.717285)"/>
</clipPath>
<clipPath id="clip2_67_7922">
<rect width="26" height="32" fill="white" transform="translate(144 0.717285)"/>
</clipPath>
<clipPath id="clip3_67_7922">
<rect width="137" height="87" fill="white" transform="translate(328.5 11.2173)"/>
</clipPath>
<clipPath id="clip4_67_7922">
<rect width="21" height="34" fill="white" transform="translate(386.5 11.2173)"/>
</clipPath>
<clipPath id="clip5_67_7922">
<rect width="137" height="43" fill="white" transform="translate(328.5 55.2173)"/>
</clipPath>
<clipPath id="clip6_67_7922">
<rect width="245" height="75" fill="white" transform="translate(480.5 17.2173)"/>
</clipPath>
<clipPath id="clip7_67_7922">
<rect width="27" height="22" fill="white" transform="translate(589.5 17.2173)"/>
</clipPath>
<clipPath id="clip8_67_7922">
<rect width="245" height="43" fill="white" transform="translate(480.5 49.2173)"/>
</clipPath>
</defs>
</svg>
