<svg width="284" height="195" viewBox="0 0 284 195" fill="none" xmlns="http://www.w3.org/2000/svg">
<g clip-path="url(#clip0_67_9553)">
<g clip-path="url(#clip1_67_9553)">
<path d="M22.9987 27.1366C27.2269 27.1366 30.6654 23.6981 30.6654 19.4699C30.6654 15.2417 27.2269 11.8032 22.9987 11.8032C18.7705 11.8032 15.332 15.2417 15.332 19.4699C15.332 23.6981 18.7705 27.1366 22.9987 27.1366ZM22.9987 15.6366C25.1128 15.6366 26.832 17.3558 26.832 19.4699C26.832 21.584 25.1128 23.3032 22.9987 23.3032C20.8846 23.3032 19.1654 21.584 19.1654 19.4699C19.1654 17.3558 20.8846 15.6366 22.9987 15.6366Z" fill="white"/>
<path d="M21.8898 42.1136C22.2142 42.3452 22.6029 42.4697 23.0015 42.4697C23.4001 42.4697 23.7887 42.3452 24.1131 42.1136C24.6958 41.7015 38.3904 31.8134 38.3348 19.4701C38.3348 11.0156 31.4559 4.13672 23.0015 4.13672C14.5471 4.13672 7.66814 11.0156 7.66814 19.4605C7.61255 31.8134 21.3071 41.7015 21.8898 42.1136ZM23.0015 7.97005C29.3437 7.97005 34.5015 13.1278 34.5015 19.4796C34.5417 27.9858 26.0911 35.6237 23.0015 38.1288C19.9137 35.6218 11.4612 27.982 11.5015 19.4701C11.5015 13.1278 16.6592 7.97005 23.0015 7.97005Z" fill="white"/>
<path d="M61.771 18.9009L57.3545 28.8032H55.9336L60.3354 19.2524H54.564V18.1392H61.771V18.9009ZM69.2293 25.2217H70.7088V26.3276H69.2293V28.8032H67.867V26.3276H63.011V25.5293L67.7864 18.1392H69.2293V25.2217ZM64.5491 25.2217H67.867V19.9922L67.7059 20.2852L64.5491 25.2217ZM78.5992 20.9224C78.5992 21.4546 78.4576 21.9282 78.1744 22.3433C77.8961 22.7583 77.5177 23.083 77.0392 23.3174C77.5958 23.5566 78.0353 23.9058 78.3575 24.3647C78.6847 24.8237 78.8482 25.3438 78.8482 25.9248C78.8482 26.8477 78.5357 27.5825 77.9107 28.1294C77.2906 28.6763 76.4728 28.9497 75.4571 28.9497C74.4317 28.9497 73.609 28.6763 72.9889 28.1294C72.3736 27.5776 72.066 26.8428 72.066 25.9248C72.066 25.3486 72.2223 24.8286 72.5348 24.3647C72.8521 23.9009 73.2892 23.5493 73.8458 23.3101C73.3722 23.0757 72.9986 22.751 72.7252 22.3359C72.4518 21.9209 72.315 21.4497 72.315 20.9224C72.315 20.0239 72.6031 19.311 73.1793 18.7837C73.7555 18.2563 74.5147 17.9927 75.4571 17.9927C76.3946 17.9927 77.1515 18.2563 77.7276 18.7837C78.3087 19.311 78.5992 20.0239 78.5992 20.9224ZM77.4933 25.8955C77.4933 25.2998 77.3028 24.814 76.922 24.438C76.546 24.062 76.0528 23.874 75.4425 23.874C74.8321 23.874 74.3414 24.0596 73.9703 24.4307C73.6041 24.8018 73.421 25.29 73.421 25.8955C73.421 26.501 73.5992 26.9771 73.9557 27.3237C74.317 27.6704 74.8175 27.8438 75.4571 27.8438C76.0919 27.8438 76.5899 27.6704 76.9513 27.3237C77.3126 26.9722 77.4933 26.4961 77.4933 25.8955ZM75.4571 19.106C74.9249 19.106 74.4928 19.272 74.1607 19.604C73.8336 19.9312 73.67 20.3779 73.67 20.9443C73.67 21.4863 73.8312 21.9258 74.1534 22.2627C74.4806 22.5947 74.9151 22.7607 75.4571 22.7607C75.9991 22.7607 76.4312 22.5947 76.7535 22.2627C77.0807 21.9258 77.2442 21.4863 77.2442 20.9443C77.2442 20.4023 77.0758 19.9604 76.7389 19.6187C76.402 19.2769 75.9747 19.106 75.4571 19.106ZM87.4418 24.2549C87.4418 25.8418 87.1708 27.021 86.6288 27.7925C86.0868 28.564 85.2396 28.9497 84.0873 28.9497C82.9496 28.9497 82.1073 28.5737 81.5604 27.8218C81.0136 27.0649 80.7304 25.937 80.7108 24.438V22.6289C80.7108 21.0615 80.9818 19.897 81.5238 19.1353C82.0658 18.3735 82.9154 17.9927 84.0727 17.9927C85.2201 17.9927 86.0648 18.3613 86.6068 19.0986C87.1488 19.8311 87.4271 20.9639 87.4418 22.4971V24.2549ZM86.0868 22.4019C86.0868 21.2544 85.9257 20.4194 85.6034 19.897C85.2812 19.3696 84.7709 19.106 84.0727 19.106C83.3793 19.106 82.8739 19.3672 82.5565 19.8896C82.2392 20.4121 82.0756 21.2153 82.0658 22.2993V24.4673C82.0658 25.6196 82.2318 26.4717 82.5639 27.0234C82.9008 27.5703 83.4086 27.8438 84.0873 27.8438C84.7563 27.8438 85.2519 27.585 85.5741 27.0674C85.9013 26.5498 86.0722 25.7344 86.0868 24.6211V22.4019ZM95.4663 18.1392L98.9526 26.8403L102.439 18.1392H104.263V28.8032H102.856V24.6504L102.988 20.168L99.4873 28.8032H98.4106L94.917 20.1899L95.0562 24.6504V28.8032H93.6499V18.1392H95.4663ZM106.374 24.7676C106.374 23.9912 106.526 23.293 106.828 22.6729C107.136 22.0527 107.561 21.5742 108.103 21.2373C108.65 20.9004 109.272 20.7319 109.971 20.7319C111.05 20.7319 111.921 21.1055 112.585 21.8525C113.254 22.5996 113.589 23.5933 113.589 24.8335V24.9287C113.589 25.7002 113.44 26.3936 113.142 27.0088C112.849 27.6191 112.427 28.0952 111.875 28.437C111.328 28.7788 110.698 28.9497 109.985 28.9497C108.911 28.9497 108.039 28.5762 107.37 27.8291C106.706 27.082 106.374 26.0933 106.374 24.8628V24.7676ZM107.737 24.9287C107.737 25.8076 107.939 26.5132 108.345 27.0454C108.755 27.5776 109.302 27.8438 109.985 27.8438C110.674 27.8438 111.221 27.5752 111.626 27.0381C112.031 26.4961 112.234 25.7393 112.234 24.7676C112.234 23.8984 112.026 23.1953 111.611 22.6582C111.201 22.1162 110.654 21.8452 109.971 21.8452C109.302 21.8452 108.762 22.1113 108.352 22.6436C107.942 23.1758 107.737 23.9375 107.737 24.9287ZM118.667 27.8438C119.15 27.8438 119.572 27.6973 119.934 27.4043C120.295 27.1113 120.495 26.7451 120.534 26.3057H121.816C121.792 26.7598 121.635 27.1919 121.347 27.6021C121.059 28.0122 120.673 28.3394 120.19 28.5835C119.712 28.8276 119.204 28.9497 118.667 28.9497C117.588 28.9497 116.728 28.5908 116.088 27.873C115.454 27.1504 115.136 26.1641 115.136 24.9141V24.687C115.136 23.9155 115.278 23.2295 115.561 22.6289C115.844 22.0283 116.25 21.562 116.777 21.23C117.309 20.8979 117.937 20.7319 118.659 20.7319C119.548 20.7319 120.285 20.998 120.871 21.5303C121.462 22.0625 121.777 22.7534 121.816 23.603H120.534C120.495 23.0903 120.3 22.6704 119.948 22.3433C119.602 22.0112 119.172 21.8452 118.659 21.8452C117.971 21.8452 117.436 22.0942 117.055 22.5923C116.679 23.0854 116.491 23.8008 116.491 24.7383V24.9946C116.491 25.9077 116.679 26.6108 117.055 27.104C117.431 27.5972 117.968 27.8438 118.667 27.8438ZM125.751 25.1338L124.902 26.02V28.8032H123.547V17.5532H124.902V24.3574L125.627 23.4858L128.095 20.8784H129.743L126.66 24.189L130.102 28.8032H128.513L125.751 25.1338ZM132.814 28.8032H131.459V20.8784H132.814V28.8032ZM131.349 18.7764C131.349 18.5566 131.415 18.3711 131.547 18.2197C131.684 18.0684 131.884 17.9927 132.148 17.9927C132.411 17.9927 132.612 18.0684 132.748 18.2197C132.885 18.3711 132.953 18.5566 132.953 18.7764C132.953 18.9961 132.885 19.1792 132.748 19.3257C132.612 19.4722 132.411 19.5454 132.148 19.5454C131.884 19.5454 131.684 19.4722 131.547 19.3257C131.415 19.1792 131.349 18.9961 131.349 18.7764ZM136.471 20.8784L136.515 21.8745C137.121 21.1128 137.912 20.7319 138.888 20.7319C140.563 20.7319 141.408 21.6768 141.422 23.5664V28.8032H140.067V23.5591C140.062 22.9878 139.931 22.5654 139.672 22.292C139.418 22.0186 139.02 21.8818 138.478 21.8818C138.039 21.8818 137.653 21.999 137.321 22.2334C136.989 22.4678 136.73 22.7754 136.544 23.1562V28.8032H135.189V20.8784H136.471ZM143.344 24.7749C143.344 23.5396 143.629 22.5581 144.2 21.8306C144.772 21.0981 145.529 20.7319 146.471 20.7319C147.438 20.7319 148.192 21.0737 148.734 21.7573L148.8 20.8784H150.038V28.6128C150.038 29.6382 149.733 30.4463 149.122 31.0371C148.517 31.6279 147.701 31.9233 146.676 31.9233C146.105 31.9233 145.546 31.8013 144.999 31.5571C144.452 31.313 144.034 30.9785 143.746 30.5537L144.45 29.7407C145.031 30.4585 145.741 30.8174 146.581 30.8174C147.24 30.8174 147.753 30.6318 148.119 30.2607C148.49 29.8896 148.676 29.3672 148.676 28.6934V28.0122C148.134 28.6372 147.394 28.9497 146.456 28.9497C145.529 28.9497 144.777 28.5762 144.2 27.8291C143.629 27.082 143.344 26.064 143.344 24.7749ZM144.706 24.9287C144.706 25.8223 144.889 26.5254 145.255 27.0381C145.621 27.5459 146.134 27.7998 146.793 27.7998C147.648 27.7998 148.275 27.4116 148.676 26.6353V23.0171C148.261 22.2603 147.638 21.8818 146.808 21.8818C146.149 21.8818 145.634 22.1382 145.262 22.6509C144.891 23.1636 144.706 23.9229 144.706 24.9287ZM158.998 24.9287C158.998 26.1396 158.719 27.1138 158.163 27.8511C157.606 28.5835 156.859 28.9497 155.921 28.9497C154.921 28.9497 154.147 28.5957 153.6 27.8877L153.534 28.8032H152.289V17.5532H153.644V21.75C154.191 21.0713 154.945 20.7319 155.907 20.7319C156.869 20.7319 157.623 21.0957 158.17 21.8232C158.722 22.5508 158.998 23.5469 158.998 24.8115V24.9287ZM157.643 24.7749C157.643 23.8521 157.464 23.1392 157.108 22.6362C156.752 22.1333 156.239 21.8818 155.57 21.8818C154.676 21.8818 154.034 22.2969 153.644 23.127V26.5547C154.059 27.3848 154.706 27.7998 155.585 27.7998C156.234 27.7998 156.739 27.5483 157.101 27.0454C157.462 26.5425 157.643 25.7856 157.643 24.7749ZM162.384 28.8032H161.029V20.8784H162.384V28.8032ZM160.919 18.7764C160.919 18.5566 160.985 18.3711 161.117 18.2197C161.253 18.0684 161.454 17.9927 161.717 17.9927C161.981 17.9927 162.181 18.0684 162.318 18.2197C162.454 18.3711 162.523 18.5566 162.523 18.7764C162.523 18.9961 162.454 19.1792 162.318 19.3257C162.181 19.4722 161.981 19.5454 161.717 19.5454C161.454 19.5454 161.253 19.4722 161.117 19.3257C160.985 19.1792 160.919 18.9961 160.919 18.7764ZM168.59 22.0942C168.384 22.0601 168.162 22.043 167.923 22.043C167.034 22.043 166.431 22.4214 166.114 23.1782V28.8032H164.759V20.8784H166.077L166.099 21.7939C166.544 21.0859 167.174 20.7319 167.989 20.7319C168.253 20.7319 168.453 20.7661 168.59 20.8345V22.0942ZM169.566 24.7749C169.566 23.5591 169.854 22.5825 170.43 21.8452C171.006 21.103 171.761 20.7319 172.693 20.7319C173.621 20.7319 174.356 21.0493 174.898 21.6841V17.5532H176.253V28.8032H175.008L174.942 27.9536C174.4 28.6177 173.646 28.9497 172.679 28.9497C171.761 28.9497 171.011 28.5737 170.43 27.8218C169.854 27.0698 169.566 26.0884 169.566 24.8774V24.7749ZM170.921 24.9287C170.921 25.8271 171.106 26.5303 171.478 27.0381C171.849 27.5459 172.361 27.7998 173.016 27.7998C173.875 27.7998 174.502 27.4141 174.898 26.6426V23.0024C174.493 22.2554 173.87 21.8818 173.03 21.8818C172.366 21.8818 171.849 22.1382 171.478 22.6509C171.106 23.1636 170.921 23.9229 170.921 24.9287ZM190.891 28.8032H189.478V23.874H184.102V28.8032H182.695V18.1392H184.102V22.7241H189.478V18.1392H190.891V28.8032ZM194.849 28.8032H193.494V20.8784H194.849V28.8032ZM193.384 18.7764C193.384 18.5566 193.45 18.3711 193.581 18.2197C193.718 18.0684 193.918 17.9927 194.182 17.9927C194.446 17.9927 194.646 18.0684 194.783 18.2197C194.919 18.3711 194.988 18.5566 194.988 18.7764C194.988 18.9961 194.919 19.1792 194.783 19.3257C194.646 19.4722 194.446 19.5454 194.182 19.5454C193.918 19.5454 193.718 19.4722 193.581 19.3257C193.45 19.1792 193.384 18.9961 193.384 18.7764ZM198.696 28.8032H197.341V17.5532H198.696V28.8032ZM202.543 28.8032H201.188V17.5532H202.543V28.8032ZM213.732 28.0195C213.205 28.6396 212.431 28.9497 211.41 28.9497C210.566 28.9497 209.921 28.7056 209.477 28.2173C209.037 27.7241 208.815 26.9966 208.81 26.0347V20.8784H210.165V25.998C210.165 27.1992 210.653 27.7998 211.63 27.7998C212.665 27.7998 213.354 27.4141 213.695 26.6426V20.8784H215.05V28.8032H213.761L213.732 28.0195ZM218.598 20.8784L218.642 21.8745C219.247 21.1128 220.038 20.7319 221.015 20.7319C222.689 20.7319 223.534 21.6768 223.549 23.5664V28.8032H222.194V23.5591C222.189 22.9878 222.057 22.5654 221.798 22.292C221.544 22.0186 221.146 21.8818 220.604 21.8818C220.165 21.8818 219.779 21.999 219.447 22.2334C219.115 22.4678 218.856 22.7754 218.671 23.1562V28.8032H217.316V20.8784H218.598ZM225.463 24.7749C225.463 23.5591 225.751 22.5825 226.327 21.8452C226.903 21.103 227.657 20.7319 228.59 20.7319C229.518 20.7319 230.253 21.0493 230.795 21.6841V17.5532H232.15V28.8032H230.904L230.839 27.9536C230.297 28.6177 229.542 28.9497 228.575 28.9497C227.657 28.9497 226.908 28.5737 226.327 27.8218C225.751 27.0698 225.463 26.0884 225.463 24.8774V24.7749ZM226.818 24.9287C226.818 25.8271 227.003 26.5303 227.374 27.0381C227.745 27.5459 228.258 27.7998 228.912 27.7998C229.772 27.7998 230.399 27.4141 230.795 26.6426V23.0024C230.389 22.2554 229.767 21.8818 228.927 21.8818C228.263 21.8818 227.745 22.1382 227.374 22.6509C227.003 23.1636 226.818 23.9229 226.818 24.9287ZM237.748 28.9497C236.673 28.9497 235.799 28.5981 235.125 27.895C234.452 27.187 234.115 26.2422 234.115 25.0605V24.8115C234.115 24.0254 234.264 23.3247 234.562 22.7095C234.864 22.0894 235.284 21.606 235.821 21.2593C236.363 20.9077 236.949 20.7319 237.579 20.7319C238.609 20.7319 239.41 21.0713 239.981 21.75C240.553 22.4287 240.838 23.4004 240.838 24.665V25.229H235.47C235.489 26.0103 235.716 26.6426 236.151 27.126C236.59 27.6045 237.147 27.8438 237.821 27.8438C238.299 27.8438 238.705 27.7461 239.037 27.5508C239.369 27.3555 239.659 27.0967 239.908 26.7744L240.736 27.4189C240.072 28.4395 239.076 28.9497 237.748 28.9497ZM237.579 21.8452C237.032 21.8452 236.573 22.0454 236.202 22.4458C235.831 22.8413 235.602 23.3979 235.514 24.1157H239.483V24.0132C239.444 23.3247 239.259 22.7925 238.927 22.4165C238.595 22.0356 238.146 21.8452 237.579 21.8452ZM243.067 28.8032V21.9258H241.815V20.8784H243.067V20.2046C243.067 19.3208 243.319 18.6323 243.822 18.1392C244.329 17.646 245.045 17.3994 245.968 17.3994C246.514 17.3994 247.205 17.5483 248.04 17.8462L247.813 18.9888C247.203 18.7446 246.622 18.6226 246.07 18.6226C245.489 18.6226 245.069 18.7544 244.81 19.0181C244.556 19.2769 244.429 19.6675 244.429 20.1899V20.8784H246.048V21.9258H244.429V28.8032H243.067ZM248.714 28.8032H247.352V20.8784H248.714V28.8032ZM252.4 20.8784L252.444 21.8745C253.05 21.1128 253.841 20.7319 254.817 20.7319C256.492 20.7319 257.337 21.6768 257.352 23.5664V28.8032H255.997V23.5591C255.992 22.9878 255.86 22.5654 255.601 22.292C255.347 22.0186 254.949 21.8818 254.407 21.8818C253.968 21.8818 253.582 21.999 253.25 22.2334C252.918 22.4678 252.659 22.7754 252.474 23.1562V28.8032H251.119V20.8784H252.4ZM262.884 28.9497C261.809 28.9497 260.935 28.5981 260.262 27.895C259.588 27.187 259.251 26.2422 259.251 25.0605V24.8115C259.251 24.0254 259.4 23.3247 259.698 22.7095C260 22.0894 260.42 21.606 260.957 21.2593C261.499 20.9077 262.085 20.7319 262.715 20.7319C263.746 20.7319 264.546 21.0713 265.118 21.75C265.689 22.4287 265.975 23.4004 265.975 24.665V25.229H260.606C260.625 26.0103 260.852 26.6426 261.287 27.126C261.726 27.6045 262.283 27.8438 262.957 27.8438C263.435 27.8438 263.841 27.7461 264.173 27.5508C264.505 27.3555 264.795 27.0967 265.044 26.7744L265.872 27.4189C265.208 28.4395 264.212 28.9497 262.884 28.9497ZM262.715 21.8452C262.168 21.8452 261.709 22.0454 261.338 22.4458C260.967 22.8413 260.738 23.3979 260.65 24.1157H264.62V24.0132C264.58 23.3247 264.395 22.7925 264.063 22.4165C263.731 22.0356 263.282 21.8452 262.715 21.8452ZM267.42 24.7749C267.42 23.5591 267.708 22.5825 268.284 21.8452C268.86 21.103 269.614 20.7319 270.547 20.7319C271.475 20.7319 272.21 21.0493 272.752 21.6841V17.5532H274.107V28.8032H272.862L272.796 27.9536C272.254 28.6177 271.499 28.9497 270.532 28.9497C269.614 28.9497 268.865 28.5737 268.284 27.8218C267.708 27.0698 267.42 26.0884 267.42 24.8774V24.7749ZM268.775 24.9287C268.775 25.8271 268.96 26.5303 269.331 27.0381C269.702 27.5459 270.215 27.7998 270.869 27.7998C271.729 27.7998 272.356 27.4141 272.752 26.6426V23.0024C272.346 22.2554 271.724 21.8818 270.884 21.8818C270.22 21.8818 269.702 22.1382 269.331 22.6509C268.96 23.1636 268.775 23.9229 268.775 24.9287Z" fill="white"/>
</g>
<g clip-path="url(#clip2_67_9553)">
<path d="M23.3346 63.7617H11.668C9.24714 63.7617 7.29297 65.7159 7.29297 68.1367V91.4701C7.29297 93.8909 9.24714 95.8451 11.668 95.8451H23.3346C25.7555 95.8451 27.7096 93.8909 27.7096 91.4701V68.1367C27.7096 65.7159 25.7555 63.7617 23.3346 63.7617ZM20.418 92.9284H14.5846V91.4701H20.418V92.9284ZM25.1576 88.5534H9.84505V68.1367H25.1576V88.5534Z" fill="white"/>
<path d="M45.9741 80.9746C45.9741 79.8711 46.1206 78.8115 46.4136 77.7959C46.7114 76.7803 47.1533 75.8574 47.7393 75.0273C48.3252 74.1973 48.9331 73.6113 49.563 73.2695L49.8413 74.1631C49.1284 74.71 48.5425 75.5449 48.0835 76.668C47.6294 77.791 47.3804 79.0483 47.3364 80.4399L47.3291 81.0625C47.3291 82.9473 47.6733 84.583 48.3618 85.9697C48.7769 86.7998 49.27 87.4492 49.8413 87.918L49.563 88.7456C48.9136 88.3843 48.2935 87.7788 47.7026 86.9292C46.5503 85.269 45.9741 83.2842 45.9741 80.9746ZM58.2005 85.3032H51.2132V84.3291L54.9046 80.2275C55.4515 79.6074 55.8274 79.1045 56.0325 78.7188C56.2425 78.3281 56.3475 77.9253 56.3475 77.5103C56.3475 76.9536 56.179 76.4971 55.8421 76.1406C55.5052 75.7842 55.056 75.606 54.4944 75.606C53.8206 75.606 53.2957 75.7988 52.9197 76.1846C52.5486 76.5654 52.3631 77.0977 52.3631 77.7812H51.0081C51.0081 76.7998 51.323 76.0063 51.9529 75.4009C52.5877 74.7954 53.4349 74.4927 54.4944 74.4927C55.4856 74.4927 56.2693 74.7539 56.8455 75.2764C57.4217 75.7939 57.7098 76.4849 57.7098 77.3491C57.7098 78.3989 57.0408 79.6489 55.7029 81.0991L52.8465 84.1973H58.2005V85.3032ZM61.8062 79.312H62.8243C63.464 79.3022 63.9669 79.1338 64.3331 78.8066C64.6993 78.4795 64.8824 78.0376 64.8824 77.481C64.8824 76.231 64.2599 75.606 63.0147 75.606C62.4288 75.606 61.9601 75.7744 61.6085 76.1113C61.2618 76.4434 61.0885 76.8853 61.0885 77.437H59.7335C59.7335 76.5923 60.0411 75.8916 60.6563 75.335C61.2765 74.7734 62.0626 74.4927 63.0147 74.4927C64.0206 74.4927 64.8092 74.7588 65.3805 75.291C65.9518 75.8232 66.2374 76.563 66.2374 77.5103C66.2374 77.9741 66.086 78.4233 65.7833 78.8579C65.4854 79.2925 65.0777 79.6172 64.5602 79.832C65.1461 80.0176 65.5978 80.3252 65.9151 80.7549C66.2374 81.1846 66.3985 81.7095 66.3985 82.3296C66.3985 83.2866 66.086 84.0459 65.461 84.6074C64.836 85.1689 64.023 85.4497 63.0221 85.4497C62.0211 85.4497 61.2057 85.1787 60.5758 84.6367C59.9508 84.0947 59.6383 83.3794 59.6383 82.4907H61.0006C61.0006 83.0522 61.1837 83.5015 61.5499 83.8384C61.9161 84.1753 62.4068 84.3438 63.0221 84.3438C63.6764 84.3438 64.1769 84.1729 64.5235 83.8311C64.8702 83.4893 65.0436 82.9985 65.0436 82.3589C65.0436 81.7388 64.8531 81.2627 64.4723 80.9307C64.0914 80.5986 63.5421 80.4277 62.8243 80.418H61.8062V79.312ZM73.6518 80.6157C73.3686 80.9526 73.0292 81.2236 72.6337 81.4287C72.2431 81.6338 71.8134 81.7363 71.3446 81.7363C70.7294 81.7363 70.1923 81.585 69.7333 81.2822C69.2792 80.9795 68.9276 80.5547 68.6786 80.0078C68.4296 79.4561 68.3051 78.8481 68.3051 78.1841C68.3051 77.4712 68.4394 76.8291 68.7079 76.2578C68.9813 75.6865 69.3671 75.2495 69.8651 74.9468C70.3632 74.644 70.9442 74.4927 71.6083 74.4927C72.663 74.4927 73.4931 74.8882 74.0985 75.6792C74.7089 76.4653 75.0141 77.5396 75.0141 78.9019V79.2974C75.0141 81.3726 74.6039 82.8887 73.7836 83.8457C72.9633 84.7979 71.7255 85.2861 70.0702 85.3105H69.8065V84.168H70.0922C71.2104 84.1484 72.0697 83.8579 72.6703 83.2964C73.2709 82.73 73.598 81.8364 73.6518 80.6157ZM71.5644 80.6157C72.0185 80.6157 72.4359 80.4766 72.8168 80.1982C73.2025 79.9199 73.4833 79.5757 73.6591 79.1655V78.6235C73.6591 77.7349 73.4662 77.0122 73.0805 76.4556C72.6947 75.8989 72.2064 75.6206 71.6156 75.6206C71.0199 75.6206 70.5414 75.8501 70.1801 76.3091C69.8188 76.7632 69.6381 77.3638 69.6381 78.1108C69.6381 78.8384 69.8114 79.439 70.1581 79.9126C70.5097 80.3813 70.9784 80.6157 71.5644 80.6157ZM80.3483 81.0479C80.3483 82.1367 80.2043 83.1816 79.9162 84.1826C79.633 85.1787 79.196 86.0991 78.6052 86.9438C78.0192 87.7886 77.404 88.3892 76.7595 88.7456L76.4738 87.918C77.2258 87.3418 77.8288 86.4482 78.2829 85.2373C78.7419 84.0215 78.9763 82.6738 78.986 81.1943V80.96C78.986 79.9346 78.8786 78.9824 78.6638 78.1035C78.4489 77.2197 78.1486 76.4287 77.7629 75.7305C77.382 75.0322 76.9523 74.4878 76.4738 74.0972L76.7595 73.2695C77.404 73.626 78.0168 74.2217 78.5979 75.0566C79.1838 75.8916 79.6208 76.812 79.9089 77.8179C80.2019 78.8237 80.3483 79.9004 80.3483 81.0479ZM87.0398 79.9565L87.5818 74.6392H93.0457V75.8916H88.7317L88.4095 78.7993C88.9319 78.4917 89.5252 78.3379 90.1893 78.3379C91.1609 78.3379 91.9324 78.6602 92.5037 79.3047C93.075 79.9443 93.3606 80.811 93.3606 81.9048C93.3606 83.0034 93.0628 83.8701 92.4671 84.5049C91.8763 85.1348 91.0486 85.4497 89.9842 85.4497C89.0418 85.4497 88.2728 85.1885 87.6771 84.666C87.0813 84.1436 86.742 83.4209 86.659 82.498H87.9407C88.0237 83.1084 88.241 83.5698 88.5926 83.8823C88.9441 84.1899 89.408 84.3438 89.9842 84.3438C90.6141 84.3438 91.1072 84.1289 91.4637 83.6992C91.825 83.2695 92.0057 82.6763 92.0057 81.9194C92.0057 81.2065 91.8104 80.6353 91.4197 80.2056C91.034 79.771 90.5188 79.5537 89.8743 79.5537C89.2835 79.5537 88.8196 79.6831 88.4827 79.9419L88.1238 80.2349L87.0398 79.9565ZM95.6627 79.9565L96.2047 74.6392H101.669V75.8916H97.3546L97.0323 78.7993C97.5548 78.4917 98.148 78.3379 98.8121 78.3379C99.7838 78.3379 100.555 78.6602 101.127 79.3047C101.698 79.9443 101.983 80.811 101.983 81.9048C101.983 83.0034 101.686 83.8701 101.09 84.5049C100.499 85.1348 99.6715 85.4497 98.607 85.4497C97.6646 85.4497 96.8956 85.1885 96.2999 84.666C95.7042 84.1436 95.3648 83.4209 95.2818 82.498H96.5636C96.6466 83.1084 96.8639 83.5698 97.2154 83.8823C97.567 84.1899 98.0309 84.3438 98.607 84.3438C99.2369 84.3438 99.7301 84.1289 100.087 83.6992C100.448 83.2695 100.629 82.6763 100.629 81.9194C100.629 81.2065 100.433 80.6353 100.043 80.2056C99.6568 79.771 99.1417 79.5537 98.4972 79.5537C97.9063 79.5537 97.4425 79.6831 97.1056 79.9419L96.7467 80.2349L95.6627 79.9565ZM104.286 79.9565L104.828 74.6392H110.291V75.8916H105.977L105.655 78.7993C106.178 78.4917 106.771 78.3379 107.435 78.3379C108.407 78.3379 109.178 78.6602 109.749 79.3047C110.321 79.9443 110.606 80.811 110.606 81.9048C110.606 83.0034 110.308 83.8701 109.713 84.5049C109.122 85.1348 108.294 85.4497 107.23 85.4497C106.287 85.4497 105.518 85.1885 104.923 84.666C104.327 84.1436 103.988 83.4209 103.905 82.498H105.186C105.269 83.1084 105.487 83.5698 105.838 83.8823C106.19 84.1899 106.654 84.3438 107.23 84.3438C107.86 84.3438 108.353 84.1289 108.709 83.6992C109.071 83.2695 109.251 82.6763 109.251 81.9194C109.251 81.2065 109.056 80.6353 108.665 80.2056C108.28 79.771 107.765 79.5537 107.12 79.5537C106.529 79.5537 106.065 79.6831 105.728 79.9419L105.37 80.2349L104.286 79.9565ZM115.245 81.3262H111.671V80.2202H115.245V81.3262ZM123.318 80.7549C123.318 82.3418 123.047 83.521 122.505 84.2925C121.963 85.064 121.116 85.4497 119.964 85.4497C118.826 85.4497 117.984 85.0737 117.437 84.3218C116.89 83.5649 116.607 82.437 116.587 80.938V79.1289C116.587 77.5615 116.858 76.397 117.4 75.6353C117.942 74.8735 118.792 74.4927 119.949 74.4927C121.097 74.4927 121.941 74.8613 122.483 75.5986C123.025 76.3311 123.304 77.4639 123.318 78.9971V80.7549ZM121.963 78.9019C121.963 77.7544 121.802 76.9194 121.48 76.397C121.158 75.8696 120.647 75.606 119.949 75.606C119.256 75.606 118.75 75.8672 118.433 76.3896C118.116 76.9121 117.952 77.7153 117.942 78.7993V80.9673C117.942 82.1196 118.108 82.9717 118.44 83.5234C118.777 84.0703 119.285 84.3438 119.964 84.3438C120.633 84.3438 121.128 84.085 121.451 83.5674C121.778 83.0498 121.949 82.2344 121.963 81.1211V78.9019ZM129.707 85.3032H128.345V76.2725L125.613 77.2759V76.0454L129.495 74.5879H129.707V85.3032ZM140.564 80.7549C140.564 82.3418 140.293 83.521 139.751 84.2925C139.209 85.064 138.362 85.4497 137.21 85.4497C136.072 85.4497 135.23 85.0737 134.683 84.3218C134.136 83.5649 133.853 82.437 133.833 80.938V79.1289C133.833 77.5615 134.104 76.397 134.646 75.6353C135.188 74.8735 136.038 74.4927 137.195 74.4927C138.342 74.4927 139.187 74.8613 139.729 75.5986C140.271 76.3311 140.549 77.4639 140.564 78.9971V80.7549ZM139.209 78.9019C139.209 77.7544 139.048 76.9194 138.726 76.397C138.403 75.8696 137.893 75.606 137.195 75.606C136.502 75.606 135.996 75.8672 135.679 76.3896C135.361 76.9121 135.198 77.7153 135.188 78.7993V80.9673C135.188 82.1196 135.354 82.9717 135.686 83.5234C136.023 84.0703 136.531 84.3438 137.21 84.3438C137.879 84.3438 138.374 84.085 138.696 83.5674C139.024 83.0498 139.194 82.2344 139.209 81.1211V78.9019ZM148.967 77.4224C148.967 77.9546 148.826 78.4282 148.542 78.8433C148.264 79.2583 147.886 79.583 147.407 79.8174C147.964 80.0566 148.403 80.4058 148.725 80.8647C149.053 81.3237 149.216 81.8438 149.216 82.4248C149.216 83.3477 148.904 84.0825 148.279 84.6294C147.659 85.1763 146.841 85.4497 145.825 85.4497C144.8 85.4497 143.977 85.1763 143.357 84.6294C142.742 84.0776 142.434 83.3428 142.434 82.4248C142.434 81.8486 142.59 81.3286 142.903 80.8647C143.22 80.4009 143.657 80.0493 144.214 79.8101C143.74 79.5757 143.367 79.251 143.093 78.8359C142.82 78.4209 142.683 77.9497 142.683 77.4224C142.683 76.5239 142.971 75.811 143.547 75.2837C144.123 74.7563 144.883 74.4927 145.825 74.4927C146.763 74.4927 147.519 74.7563 148.096 75.2837C148.677 75.811 148.967 76.5239 148.967 77.4224ZM147.861 82.3955C147.861 81.7998 147.671 81.314 147.29 80.938C146.914 80.562 146.421 80.374 145.81 80.374C145.2 80.374 144.709 80.5596 144.338 80.9307C143.972 81.3018 143.789 81.79 143.789 82.3955C143.789 83.001 143.967 83.4771 144.324 83.8237C144.685 84.1704 145.185 84.3438 145.825 84.3438C146.46 84.3438 146.958 84.1704 147.319 83.8237C147.681 83.4722 147.861 82.9961 147.861 82.3955ZM145.825 75.606C145.293 75.606 144.861 75.772 144.529 76.104C144.202 76.4312 144.038 76.8779 144.038 77.4443C144.038 77.9863 144.199 78.4258 144.521 78.7627C144.849 79.0947 145.283 79.2607 145.825 79.2607C146.367 79.2607 146.799 79.0947 147.121 78.7627C147.449 78.4258 147.612 77.9863 147.612 77.4443C147.612 76.9023 147.444 76.4604 147.107 76.1187C146.77 75.7769 146.343 75.606 145.825 75.606Z" fill="white"/>
</g>
<g clip-path="url(#clip3_67_9553)">
<path d="M37.1455 143.482C35.9207 144.01 34.5878 144.39 33.2149 144.538C34.6403 143.692 35.7077 142.354 36.2168 140.776C34.8793 141.572 33.414 142.13 31.886 142.425C31.2474 141.742 30.475 141.198 29.617 140.827C28.7589 140.456 27.8337 140.266 26.8988 140.268C23.1163 140.268 20.0744 143.334 20.0744 147.096C20.0744 147.624 20.1384 148.153 20.2425 148.661C14.5788 148.365 9.52753 145.659 6.16936 141.516C5.55746 142.562 5.2368 143.752 5.24075 144.963C5.24075 147.332 6.44553 149.422 8.28273 150.65C7.20004 150.608 6.14271 150.31 5.19672 149.782V149.866C5.19672 153.184 7.54225 155.934 10.6683 156.566C10.0813 156.719 9.47753 156.797 8.87111 156.798C8.42682 156.798 8.00655 156.754 7.58227 156.694C8.44683 159.4 10.9645 161.365 13.9624 161.429C11.6169 163.267 8.67898 164.347 5.48891 164.347C4.91654 164.347 4.3882 164.327 3.83984 164.263C6.86581 166.204 10.4561 167.325 14.3226 167.325C26.8748 167.325 33.7432 156.926 33.7432 147.901C33.7432 147.604 33.7432 147.308 33.7232 147.012C35.0521 146.039 36.2168 144.835 37.1455 143.482Z" fill="white"/>
<path d="M100.213 137.786H70.7535C70.045 137.786 69.4727 138.359 69.4727 139.067V168.526C69.4727 169.235 70.045 169.807 70.7535 169.807H100.213C100.921 169.807 101.493 169.235 101.493 168.526V139.067C101.493 138.359 100.921 137.786 100.213 137.786ZM96.5142 147.132H93.9565C91.9512 147.132 91.563 148.085 91.563 149.486V152.572H96.3501L95.7257 157.403H91.563V169.807H86.5718V157.407H82.397V152.572H86.5718V149.009C86.5718 144.875 89.0974 142.621 92.7878 142.621C94.5569 142.621 96.0739 142.753 96.5182 142.813V147.132H96.5142Z" fill="white"/>
<path d="M165.197 137.786H135.738C135.029 137.786 134.457 138.359 134.457 139.067V168.526C134.457 169.235 135.029 169.807 135.738 169.807H165.197C165.905 169.807 166.478 169.235 166.478 168.526V139.067C166.478 138.359 165.905 137.786 165.197 137.786ZM143.955 165.072H139.204V149.79H143.955V165.072ZM141.582 147.701C141.037 147.701 140.505 147.539 140.052 147.236C139.599 146.934 139.246 146.504 139.037 146.001C138.829 145.497 138.775 144.944 138.881 144.41C138.987 143.875 139.249 143.385 139.634 143C140.02 142.614 140.51 142.352 141.044 142.246C141.579 142.14 142.132 142.194 142.635 142.403C143.139 142.611 143.569 142.964 143.871 143.417C144.174 143.87 144.335 144.402 144.335 144.947C144.331 146.468 143.099 147.701 141.582 147.701ZM161.743 165.072H156.996V157.639C156.996 155.866 156.964 153.588 154.526 153.588C152.056 153.588 151.676 155.518 151.676 157.511V165.072H146.933V149.79H151.488V151.879H151.552C152.185 150.678 153.734 149.41 156.047 149.41C160.858 149.41 161.743 152.576 161.743 156.69V165.072Z" fill="white"/>
</g>
</g>
<defs>
<clipPath id="clip0_67_9553">
<rect width="284" height="193.987" fill="white" transform="translate(0 0.303223)"/>
</clipPath>
<clipPath id="clip1_67_9553">
<rect width="284" height="46" fill="white" transform="translate(0 0.303223)"/>
</clipPath>
<clipPath id="clip2_67_9553">
<rect width="161" height="47" fill="white" transform="translate(0 56.3032)"/>
</clipPath>
<clipPath id="clip3_67_9553">
<rect width="170.96" height="80.9866" fill="white" transform="translate(0 113.303)"/>
</clipPath>
</defs>
</svg>
